<svg width="79" height="41" viewBox="0 0 79 41" fill="none" xmlns="http://www.w3.org/2000/svg">
    <path
        d="M7.0145 28.0015C21.4954 35.4614 28.5433 27.8814 26.9652 18.7927C24.3063 3.47914 22.8828 -0.954693 15.428 0.395986C1.00423 2.8311 -6.34376 21.1199 7.0145 28.0015Z"
        fill="url(#paint0_linear_205_254)" />
    <path
        d="M65.7891 23.5907C68.5205 27.0563 70.9009 24.5814 71.7497 22.9108C72.75 20.0625 70.5378 18.7926 68.9283 18.7926C65.8206 18.7553 63.0577 20.1251 65.7891 23.5907Z"
        fill="url(#paint1_linear_205_254)" />
    <path
        d="M25.1565 0C26.9291 0.247491 27.8154 0.587792 27.8154 1.0209L29.9786 7.65676L31.4207 12.9469C32.0817 16.1024 32.9379 19.5054 33.9894 23.1559C34.0495 23.125 34.1096 23.1095 34.1697 23.1095V23.5735H34.1246C34.1547 23.6663 34.1847 23.7746 34.2148 23.8984C34.2749 24.0221 34.3049 24.1149 34.3049 24.1768L35.1612 26.0794L35.3865 27.2395L35.2964 27.7499C35.6268 27.9974 36.0024 28.1366 36.423 28.1676H37.3694C37.6999 28.2295 37.8952 28.3068 37.9552 28.3996L37.6848 28.9565L37.7299 29.7453C37.7299 30.0856 37.5797 30.4105 37.2793 30.7198H37.099C36.8586 30.4723 36.6634 30.3486 36.5131 30.3486H36.423C36.1226 30.3486 35.9573 30.4414 35.9273 30.627C35.9273 30.7198 36.1977 30.7817 36.7385 30.8126V30.9519C36.7385 31.0756 36.5582 31.1529 36.1977 31.1839L35.6118 30.9983H35.1612L32.3671 31.2767C31.7362 31.2767 30.955 30.89 30.0237 30.1166L30.3842 29.7453V29.5597L29.9335 28.5852C29.9335 28.214 30.4893 28.0284 31.601 28.0284L31.646 27.9356V27.7499C31.646 26.3578 31.0301 24.7955 29.7983 23.0631H29.7533C26.6287 23.3106 22.9784 23.6354 18.8023 24.0376H17.8108C17.6907 24.1613 17.2851 25.3988 16.5941 27.7499C16.7142 27.8737 16.8795 27.9356 17.0898 27.9356H17.9911C19.0426 27.9356 19.9439 28.3687 20.695 29.2349V29.2813C20.695 29.4978 20.3045 29.9155 19.5233 30.5342C19.5233 30.8745 17.24 31.0447 12.6733 31.0447C11.9222 31.0137 11.5467 30.9209 11.5467 30.7662L11.7269 30.163V30.1166C11.7269 29.9928 11.6068 29.7144 11.3664 29.2813C11.3664 29.0957 11.6368 28.8637 12.1776 28.5852L12.2227 28.446V27.7499C12.2227 27.4715 12.3729 27.3323 12.6733 27.3323L12.8536 27.5179L12.6733 28.0748L12.7184 28.1212H12.7635C13.124 27.5953 13.3042 27.224 13.3042 27.0075V26.8219C13.3042 26.6362 13.2592 26.5434 13.169 26.5434C13.4695 25.9866 13.7098 25.2441 13.8901 24.316L16.2335 17.6337L17.0898 15.4527C17.0898 15.1743 17.3602 14.7103 17.901 14.0606V13.9678L17.7658 13.5037C18.0962 13.2562 18.2615 13.0552 18.2615 12.9005L18.1263 12.7613C18.1263 12.4519 18.3066 12.1271 18.6671 11.7868L18.622 11.4619L20.695 5.19731C21.2058 4.26922 21.6715 3.15551 22.0921 1.85618C22.1822 1.85618 22.4075 1.56229 22.7681 0.974496C23.9998 0.355769 24.796 0.0309364 25.1565 0ZM18.6671 20.65V20.8821L18.8023 20.9749C22.738 20.3252 25.8325 20.0004 28.0858 20.0004H29.9335L30.0687 19.8148V19.7684C29.9185 18.6546 29.6481 18.0978 29.2575 18.0978L26.4184 9.28092C26.0879 8.01252 25.7574 6.99162 25.4269 6.21821C25.2767 5.84698 25.0965 5.58402 24.8861 5.42934C24.8861 5.7387 24.8711 6.06353 24.8411 6.40383C22.738 10.7349 21.2208 13.6739 20.2895 15.2207C19.8088 16.1797 19.268 17.9895 18.6671 20.65ZM35.7921 29.5597V29.6525H35.8371C36.438 29.6525 36.7385 29.5597 36.7385 29.3741L36.5131 29.1885C36.2728 29.1885 36.0324 29.3122 35.7921 29.5597ZM24.7059 4.54765H24.751C25.0213 4.54765 25.1565 4.4239 25.1565 4.17641V3.9908H25.0213C24.811 4.11454 24.7059 4.30016 24.7059 4.54765ZM26.0579 0.696069H25.8325V0.928092L25.9677 1.06731H26.3283L26.4184 0.974496V0.928092C26.3583 0.77341 26.2381 0.696069 26.0579 0.696069ZM26.5986 20.7429L26.5085 20.9285L26.5986 21.0213H26.824C27.0944 21.0213 27.2446 20.9594 27.2746 20.8357V20.7429H26.5986ZM33.674 24.6408H32.3671V24.8265L33.674 24.7336V24.6408ZM16.2786 24.4088H16.1885L16.1434 24.6872L16.1885 24.9193H16.2786L16.4138 24.78V24.4552L16.2786 24.4088ZM32.0065 30.9983V31.0911H32.1868C32.3671 31.0911 32.4722 31.0292 32.5023 30.9055L32.4121 30.7662C32.2018 30.7662 32.0666 30.8436 32.0065 30.9983ZM14.521 24.7336L14.2056 25.0121V25.1513C14.4459 25.1513 14.5811 25.043 14.6111 24.8265L14.521 24.7336ZM29.3927 19.2115L29.573 18.9795L29.6181 19.0259V19.3971L29.4829 19.5363L29.3927 19.2115ZM19.5684 13.5965L19.4332 12.6685L19.3881 12.9469V13.0861H19.4332C19.5233 13.612 19.5684 13.8131 19.5684 13.6894V13.5965ZM34.4852 27.2859H34.4401V27.6107L34.5753 27.7499H34.6204V27.4251L34.4852 27.2859ZM14.2056 27.7499L14.0253 27.7963V27.9356L14.1605 28.0748H14.2056L14.2957 27.9356L14.2056 27.7499ZM24.8861 2.27383H24.8411V2.36664L24.9312 2.50585H25.0213V2.36664L24.8861 2.27383ZM23.2187 21.6709H23.0835V21.8102H23.2187V21.6709ZM19.1177 14.107H19.0727V14.2462H19.1177V14.107Z"
        fill="#302E2B" />
    <path
        d="M26.6948 0.395986C28.4674 0.643477 29.3537 0.983778 29.3537 1.41689L31.5168 8.05274L32.9589 13.3429C33.6199 16.4984 34.4762 19.9014 35.5277 23.5519C35.5878 23.5209 35.6479 23.5055 35.708 23.5055V23.9695H35.6629C35.6929 24.0623 35.723 24.1706 35.753 24.2943C35.8131 24.4181 35.8432 24.5109 35.8432 24.5728L36.6994 26.4754L36.9247 27.6355L36.8346 28.1459C37.1651 28.3934 37.5406 28.5326 37.9612 28.5636H38.9076C39.2381 28.6254 39.4334 28.7028 39.4935 28.7956L39.2231 29.3524L39.2681 30.1413C39.2681 30.4816 39.1179 30.8065 38.8175 31.1158H38.6372C38.3969 30.8683 38.2016 30.7446 38.0514 30.7446H37.9612C37.6608 30.7446 37.4956 30.8374 37.4655 31.023C37.4655 31.1158 37.7359 31.1777 38.2767 31.2086V31.3478C38.2767 31.4716 38.0964 31.5489 37.7359 31.5799L37.1501 31.3942H36.6994L33.9053 31.6727C33.2744 31.6727 32.4933 31.286 31.5619 30.5126L31.9224 30.1413V29.9557L31.4718 28.9812C31.4718 28.61 32.0276 28.4244 33.1392 28.4244L33.1843 28.3315V28.1459C33.1843 26.7538 32.5684 25.1915 31.3366 23.4591H31.2915C28.1669 23.7066 24.5166 24.0314 20.3405 24.4336H19.3491C19.2289 24.5573 18.8233 25.7948 18.1323 28.1459C18.2525 28.2697 18.4177 28.3315 18.628 28.3315H19.5293C20.5809 28.3315 21.4822 28.7647 22.2333 29.6309V29.6773C22.2333 29.8938 21.8427 30.3115 21.0616 30.9302C21.0616 31.2705 18.7782 31.4407 14.2116 31.4407C13.4605 31.4097 13.0849 31.3169 13.0849 31.1622L13.2652 30.559V30.5126C13.2652 30.3888 13.145 30.1104 12.9047 29.6773C12.9047 29.4917 13.1751 29.2596 13.7158 28.9812L13.7609 28.842V28.1459C13.7609 27.8675 13.9111 27.7283 14.2116 27.7283L14.3918 27.9139L14.2116 28.4708L14.2566 28.5172H14.3017C14.6622 27.9912 14.8425 27.62 14.8425 27.4035V27.2178C14.8425 27.0322 14.7974 26.9394 14.7073 26.9394C15.0077 26.3826 15.2481 25.6401 15.4283 24.712L17.7718 18.0297L18.628 15.8487C18.628 15.5703 18.8984 15.1062 19.4392 14.4566V14.3638L19.304 13.8997C19.6345 13.6522 19.7997 13.4511 19.7997 13.2965L19.6645 13.1573C19.6645 12.8479 19.8448 12.5231 20.2053 12.1828L20.1603 11.8579L22.2333 5.5933C22.744 4.66521 23.2097 3.5515 23.6303 2.25217C23.7204 2.25217 23.9458 1.95827 24.3063 1.37048C25.5381 0.751755 26.3343 0.426922 26.6948 0.395986ZM20.2053 21.046V21.2781L20.3405 21.3709C24.2763 20.7212 27.3708 20.3964 29.6241 20.3964H31.4718L31.607 20.2107V20.1643C31.4567 19.0506 31.1864 18.4938 30.7958 18.4938L27.9566 9.6769C27.6262 8.40851 27.2957 7.38761 26.9652 6.6142C26.815 6.24296 26.6347 5.98 26.4244 5.82532C26.4244 6.13469 26.4094 6.45952 26.3793 6.79982C24.2763 11.1309 22.759 14.0699 21.8277 15.6167C21.347 16.5757 20.8062 18.3855 20.2053 21.046ZM37.3303 29.9557V30.0485H37.3754C37.9763 30.0485 38.2767 29.9557 38.2767 29.7701L38.0514 29.5845C37.811 29.5845 37.5707 29.7082 37.3303 29.9557ZM26.2441 4.94363H26.2892C26.5596 4.94363 26.6948 4.81989 26.6948 4.5724V4.38678H26.5596C26.3493 4.51052 26.2441 4.69614 26.2441 4.94363ZM27.5961 1.09205H27.3708V1.32408L27.506 1.46329H27.8665L27.9566 1.37048V1.32408C27.8965 1.1694 27.7764 1.09205 27.5961 1.09205ZM28.1369 21.1388L28.0468 21.3245L28.1369 21.4173H28.3622C28.6326 21.4173 28.7828 21.3554 28.8129 21.2316V21.1388H28.1369ZM35.2122 25.0368H33.9053V25.2224L35.2122 25.1296V25.0368ZM17.8168 24.8048H17.7267L17.6816 25.0832L17.7267 25.3152H17.8168L17.952 25.176V24.8512L17.8168 24.8048ZM33.5448 31.3942V31.4871H33.7251C33.9053 31.4871 34.0105 31.4252 34.0405 31.3014L33.9504 31.1622C33.7401 31.1622 33.6049 31.2396 33.5448 31.3942ZM16.0593 25.1296L15.7438 25.4081V25.5473C15.9842 25.5473 16.1194 25.439 16.1494 25.2224L16.0593 25.1296ZM30.931 19.6075L31.1112 19.3755L31.1563 19.4219V19.7931L31.0211 19.9323L30.931 19.6075ZM21.1066 13.9925L20.9714 13.0644L20.9264 13.3429V13.4821H20.9714C21.0616 14.008 21.1066 14.2091 21.1066 14.0853V13.9925ZM36.0234 27.6819H35.9784V28.0067L36.1136 28.1459H36.1586V27.8211L36.0234 27.6819ZM15.7438 28.1459L15.5635 28.1923V28.3315L15.6987 28.4708H15.7438L15.8339 28.3315L15.7438 28.1459ZM26.4244 2.66981H26.3793V2.76262L26.4695 2.90183H26.5596V2.76262L26.4244 2.66981ZM24.757 22.0669H24.6218V22.2061H24.757V22.0669ZM20.656 14.503H20.6109V14.6422H20.656V14.503Z"
        fill="#935F2E" />
    <path
        d="M42.4372 9.86252L43.699 9.76971C44.0896 11.7187 44.0746 12.7241 43.6539 12.786C43.2634 12.786 43.8042 14.5649 45.2763 18.1225C45.9373 19.824 46.4631 21.0615 46.8536 21.8349C47.7249 24.0314 48.2957 25.1296 48.5661 25.1296C48.6563 25.1296 48.8065 25.3152 49.0168 25.6865L49.0619 25.7793H49.5576C49.8881 25.7793 50.4439 24.4336 51.225 21.7421C54.1393 16.1117 54.9655 13.281 53.7036 13.2501C53.6436 13.2501 53.5684 13.2655 53.4783 13.2965C53.6586 12.059 53.7036 11.0072 53.6135 10.1409L53.8388 9.95533C57.7445 10.0481 59.6974 10.2028 59.6974 10.4194C59.8476 10.4194 59.9227 11.2083 59.9227 12.786C59.7124 13.7141 59.442 14.1782 59.1115 14.1782C58.7811 14.1472 58.6008 14.1472 58.5707 14.1782C58.5407 14.2091 58.6158 14.2555 58.7961 14.3174H58.4806C57.3089 16.3592 56.7231 17.6894 56.7231 18.3082C56.3625 19.824 55.8968 20.8759 55.326 21.4637C54.3947 24.2479 53.6736 26.166 53.1629 27.2178C52.9525 27.4653 52.7422 28.2697 52.5319 29.6309L50.5941 32.8792C49.6627 35.0447 48.3859 37.1175 46.7635 39.0974L44.5553 40.6288C43.6539 40.8763 42.9479 41 42.4372 41C40.2139 41 39.1023 40.768 39.1023 40.3039C38.862 40.1493 38.6667 39.7161 38.5165 39.0046C38.0658 38.5406 37.51 36.9164 36.849 34.1321V34.0393C36.849 33.7299 37.1495 33.5753 37.7503 33.5753C38.2611 33.5753 39.1624 33.2968 40.4543 32.74C40.8449 32.74 41.3856 34.1631 42.0766 37.0092C42.2869 37.6589 42.4522 37.9837 42.5724 37.9837H42.9329C43.1732 37.8909 43.4136 37.5197 43.6539 36.87C43.8342 36.87 44.4351 36.0656 45.4566 34.457C45.9073 33.467 46.388 32.5544 46.8987 31.7191L47.0339 31.1622V30.2341C47.0039 29.7701 46.6884 29.074 46.0875 28.1459C45.4866 27.0941 45.0059 26.1041 44.6454 25.176C43.2333 21.278 41.626 17.6585 39.8234 14.3174C39.7032 14.1936 39.568 14.1317 39.4178 14.1317L36.6688 14.271L36.5336 14.1317L36.4434 12.6004L36.3533 10.605L37.1645 10.2338L41.626 9.76971L42.4372 9.86252ZM55.1457 11.1154L54.605 10.9762L55.6415 11.4403L56.2724 11.3011H56.3625L57.1286 11.3939V11.3011C57.1286 11.1773 56.8282 11.0845 56.2273 11.0226H55.5513C55.2809 11.0226 55.1457 11.0536 55.1457 11.1154ZM58.3004 10.9762L58.2102 11.069V11.1154C58.2703 11.2392 58.3604 11.3165 58.4806 11.3475L59.2918 11.2547V11.1154C59.2618 11.0226 59.1566 10.9762 58.9763 10.9762H58.3004ZM36.9842 12.786L36.8941 12.8324V13.2037L37.1194 13.3893H37.7053C38.3362 13.3583 38.6517 13.2655 38.6517 13.1108C38.6517 12.9871 38.0958 12.8788 36.9842 12.786ZM41.1303 13.2965L40.9951 13.3893C40.9951 13.7605 41.2054 14.24 41.626 14.8278H41.6711V14.3174C41.6711 13.7914 41.5359 13.4511 41.2655 13.2965H41.1303ZM57.6694 12.6004V12.6932L57.8497 12.8788C58.9012 12.6313 59.427 12.4302 59.427 12.2756L59.2918 12.1363H59.1115C58.2403 12.2292 57.7596 12.3838 57.6694 12.6004ZM57.0385 12.3684L56.9033 12.4612V12.6932C56.9934 12.8788 57.1737 12.9716 57.4441 12.9716L57.4892 12.9252V12.6932L57.1737 12.3684H57.0385ZM56.8582 13.9461H56.6329V14.1782H56.8582V13.9461ZM56.678 15.2919H56.5428C55.3711 17.643 54.7251 18.865 54.605 18.9578V19.2827C54.605 19.4064 54.7402 19.623 55.0106 19.9323L54.6951 20.8604H54.7852C55.2058 20.2107 55.8067 18.6021 56.5879 16.0343L56.678 15.2919ZM50.0984 28.378V28.61H50.3237C50.8044 28.61 51.4203 27.125 52.1714 24.1551C52.1714 24.0933 52.3216 23.9231 52.6221 23.6447C52.6221 23.3972 52.7122 23.227 52.8925 23.1342V23.0878L52.7573 22.7166C52.9075 22.4072 52.9075 22.3918 52.7573 22.6702C52.6972 22.7939 52.577 23.026 52.3967 23.3663C51.9461 24.2015 51.5405 24.9595 51.18 25.6401C51.0598 26.0732 50.6993 26.9858 50.0984 28.378ZM45.2313 21.3709H45.1862V21.4637C45.8171 23.258 46.1927 24.1551 46.3129 24.1551H46.3579V24.0623C45.7871 22.268 45.4115 21.3709 45.2313 21.3709ZM53.1178 25.5009H53.1629C53.6436 25.5009 54.0341 24.3253 54.3346 21.9741H54.2895C54.1693 21.9741 54.0191 22.3608 53.8388 23.1342C53.4182 24.1861 53.1779 24.9749 53.1178 25.5009ZM45.0059 23.227L44.8707 23.3663V23.5055L45.0059 23.5983L45.1862 23.5055V23.4591L45.0059 23.227ZM46.3579 24.3872L46.2227 24.5264V24.6192L46.4931 24.8512C46.5832 24.8512 46.6283 24.8048 46.6283 24.712C46.5682 24.5882 46.4931 24.48 46.403 24.3872H46.3579ZM49.6477 31.6263V31.7191H49.873C50.0834 31.7191 50.504 30.9457 51.1349 29.3989V29.3524C50.7143 29.3524 50.2186 30.1104 49.6477 31.6263ZM47.9352 30.1877V30.2341H47.9803C48.2206 30.2341 48.3408 30.1259 48.3408 29.9093V29.6309H48.1605C48.0103 29.6927 47.9352 29.8784 47.9352 30.1877ZM49.2421 33.2968L48.8816 33.8537L48.9267 33.9929C49.1971 33.7764 49.3323 33.5443 49.3323 33.2968H49.2421ZM38.9671 34.2249L38.8319 34.3641C39.0723 34.7044 39.2075 35.0138 39.2375 35.2922L39.598 35.6635L39.7783 35.6171V35.385C39.7783 34.921 39.583 34.5343 39.1924 34.2249H38.9671ZM44.8707 37.1948V37.2412C45.1712 37.2412 45.4716 36.8545 45.7721 36.0811H45.6819C45.3214 36.2667 45.051 36.638 44.8707 37.1948ZM39.8684 36.4988H39.7783V36.638C39.7783 36.9783 39.8985 37.2258 40.1388 37.3804L40.274 37.2876V37.1948C40.274 36.9473 40.1388 36.7153 39.8684 36.4988ZM45.9523 38.1693L45.5467 38.7262L45.6369 38.819H45.6819C46.4931 38.3859 46.9738 37.9528 47.124 37.5197C47.0039 37.3959 46.8837 37.334 46.7635 37.334H46.5832C46.3129 37.334 46.1026 37.6125 45.9523 38.1693ZM41.0852 38.2621H40.8148V38.4013L40.9951 38.6334H41.4007L41.5359 38.5406C41.5359 38.3859 41.3856 38.2931 41.0852 38.2621ZM43.2483 39.1438L44.0595 39.7471H44.2398C44.36 39.7161 44.4201 39.5924 44.4201 39.3758V39.1438C44.39 39.051 44.2698 39.0046 44.0595 39.0046H43.6539C43.3835 39.0046 43.2483 39.051 43.2483 39.1438ZM41.6711 39.5615L41.626 39.7007C41.7161 39.9172 41.9114 40.0255 42.2118 40.0255H42.8428L42.9329 39.8863V39.8399C42.9329 39.6852 42.7526 39.5924 42.3921 39.5615H41.6711Z"
        fill="#935F2E" />
    <path
        d="M69.3108 9.30567L70.5727 9.6769H70.9783C72.6908 10.5431 74.2831 11.5795 75.7553 12.786C77.2875 14.1472 78.0536 15.1681 78.0536 15.8487H77.9635C77.7231 15.4156 77.4828 15.1991 77.2424 15.1991H77.1974C77.1072 15.1991 77.0622 15.2609 77.0622 15.3847C77.1823 15.725 77.4527 16.3128 77.8733 17.148H77.9635C78.0236 17.148 78.0987 16.9934 78.1888 16.684H78.2339C78.324 16.7149 78.4292 17.1635 78.5493 18.0297L78.9549 18.9578L78.8648 19.5611L79 21.2316C78.7897 22.0051 78.5944 23.026 78.4141 24.2943C78.294 24.8821 76.8969 27.0786 74.223 30.8838C73.0213 32.0594 71.8496 32.6472 70.7079 32.6472C69.6563 32.7709 68.4696 32.8328 67.1477 32.8328H66.2914C65.7807 32.8328 64.4437 32.3842 62.2806 31.4871C59.5466 28.9812 58.1796 27.0632 58.1796 25.7329C57.789 24.8976 57.4585 24.1242 57.1881 23.4127C57.1881 23.0105 57.5937 21.6802 58.4049 19.4219C58.4049 17.9988 58.7354 17.0088 59.3964 16.452C60.8084 13.3274 62.596 11.3011 64.7592 10.373C66.652 9.66144 68.1692 9.30567 69.3108 9.30567ZM61.199 23.8767V24.1551C61.6196 24.9904 62.0853 25.8876 62.596 26.8466C62.596 27.156 63.1669 27.5891 64.3085 28.1459C64.8493 28.7956 65.8558 29.306 67.3279 29.6773L68.1391 29.7701C69.4611 29.4917 70.4525 29.1978 71.1135 28.8884L72.7358 27.4963C74.4183 25.6401 75.2295 24.0778 75.1694 22.8094V22.3918C74.9891 21.8968 74.899 21.0924 74.899 19.9787C74.899 19.1125 74.9591 18.4319 75.0793 17.9369C75.0793 17.7204 74.4934 17.179 73.3217 16.3128C72.4805 15.0753 71.6092 14.3174 70.7079 14.0389H70.1671C66.652 14.1936 64.8944 14.4875 64.8944 14.9206C64.1132 15.725 63.5725 16.5138 63.272 17.2873C62.3106 18.3391 61.8299 19.0352 61.8299 19.3755C61.5595 20.6439 61.3492 22.1443 61.199 23.8767ZM62.596 12.6468L62.4608 12.8788V13.0644C62.6411 13.0644 63.5574 12.4148 65.2099 11.1154L65.5704 10.9762L65.8408 11.0226C67.8537 10.8061 68.8602 10.605 68.8602 10.4194V10.373L68.1391 10.2338C66.0961 10.2338 64.2484 11.0381 62.596 12.6468ZM66.1112 13.6213V13.6677L66.2013 13.8069H66.8322L70.0319 13.0644V12.9716L69.1756 12.786C67.1327 13.0335 66.1112 13.3119 66.1112 13.6213ZM59.0358 25.176L58.8556 25.3152V25.6401C58.9157 26.6919 59.2011 27.2797 59.7118 27.4035L59.7569 27.3571V27.3106C59.5466 25.8876 59.3062 25.176 59.0358 25.176ZM66.021 12.0435V12.2756C68.3645 11.9971 69.5362 11.8115 69.5362 11.7187L69.1756 11.5795H69.1306C67.6885 11.5795 66.652 11.7342 66.021 12.0435ZM69.8516 10.2802C70.0019 10.7133 70.3323 10.9298 70.8431 10.9298L71.2937 10.9762L71.3839 10.9298V10.6978C71.3839 10.3575 71.0684 10.1564 70.4375 10.0945C70.0469 10.1255 69.8516 10.1874 69.8516 10.2802ZM61.6497 29.8629H61.3342V30.0485C61.7248 30.4507 62.4308 30.6518 63.4523 30.6518H63.948C63.7978 30.4352 63.0317 30.1723 61.6497 29.8629ZM69.0855 31.5799V31.6727C69.0855 31.7655 69.3108 31.8428 69.7615 31.9047C70.2722 31.9047 70.5276 31.8274 70.5276 31.6727V31.5799C70.4976 31.4561 70.3924 31.3324 70.2122 31.2086H69.8066C69.4761 31.2086 69.2357 31.3324 69.0855 31.5799ZM77.648 22.763C77.6781 23.6911 77.7532 24.1861 77.8733 24.2479H77.9635C77.9635 23.9076 78.0987 23.5364 78.3691 23.1342V22.995L77.8733 22.299H77.7832C77.7231 22.299 77.6781 22.4536 77.648 22.763ZM74.6737 14.7814H74.4934C74.6737 15.1836 75.1093 15.5239 75.8003 15.8023H75.9806L76.1158 15.6631V15.6167C75.605 15.0598 75.1243 14.7814 74.6737 14.7814ZM73.6822 13.3429V13.4357C73.7724 13.8069 74.193 14.1936 74.9441 14.5958H75.0793L75.1694 14.4566V14.4102C75.0192 14.1936 74.5235 13.8379 73.6822 13.3429ZM70.7079 11.8115L70.6178 11.8579C71.1886 12.322 71.6392 12.554 71.9697 12.554L72.0148 12.4612V12.4148C71.5341 12.0126 71.0985 11.8115 70.7079 11.8115ZM64.7141 30.4662V30.6054C64.7141 30.791 65.1347 30.8838 65.976 30.8838L66.021 30.8374V30.7446C65.6305 30.559 65.1948 30.4662 64.7141 30.4662ZM73.0062 11.3011L72.871 11.4403C73.2015 11.8734 73.532 12.0899 73.8625 12.0899C73.8625 11.7496 73.6071 11.4867 73.0964 11.3011H73.0062ZM62.0102 16.0807V16.4056H62.1454C62.5359 16.0343 62.7312 15.7404 62.7312 15.5239V15.4775H62.5059C62.3256 15.6012 62.1604 15.8023 62.0102 16.0807ZM72.1951 13.9461C72.3753 14.2555 72.5856 14.4102 72.826 14.4102L72.871 14.3174V14.2246C72.871 13.9461 72.7509 13.8069 72.5105 13.8069C72.3002 13.8379 72.1951 13.8843 72.1951 13.9461ZM76.5664 26.1505V26.1969C76.8068 26.1969 77.0171 25.9494 77.1974 25.4545V25.3617H77.0622C76.8819 25.3617 76.7167 25.6246 76.5664 26.1505ZM62.9566 13.6677C63.227 13.6677 63.4823 13.4821 63.7227 13.1108V12.9716C63.2119 13.1263 62.9566 13.3583 62.9566 13.6677ZM77.2875 25.3152H77.5128L77.6931 25.4545C77.7231 24.9595 77.648 24.7429 77.4678 24.8048H77.3776L77.3326 24.48L77.2875 25.3152ZM71.5191 31.9047H71.5641C72.1049 31.7191 72.3753 31.5644 72.3753 31.4407L72.2852 31.3478C71.8646 31.5025 71.6092 31.6881 71.5191 31.9047ZM60.7033 28.2387L60.523 28.3315V28.4244L60.8835 28.7956H61.0638C61.0638 28.579 60.9436 28.3934 60.7033 28.2387ZM63.7677 31.1158V31.1622H64.3536L64.4437 31.0694L64.3536 30.9302H64.2635C63.963 30.9302 63.7978 30.9921 63.7677 31.1158ZM78.3691 19.4683L78.2339 19.6075V19.7931L78.3691 19.9787L78.5493 19.7931V19.6075L78.4141 19.4683H78.3691ZM59.3062 17.9833C59.4564 17.9833 59.5916 17.8751 59.7118 17.6585V17.5657C59.4414 17.5657 59.3062 17.7049 59.3062 17.9833ZM57.9092 22.995L57.8191 23.1342C57.8491 23.4127 57.8942 23.5519 57.9543 23.5519L58.0444 23.5055V23.2734L57.9543 22.995H57.9092ZM69.9418 12.2756V12.322L70.3924 11.9507L70.3023 11.9043C70.0019 12.0899 69.8817 12.2137 69.9418 12.2756ZM60.2075 16.4056H60.2526C60.3728 16.3746 60.4329 16.2509 60.4329 16.0343H60.3427C60.2526 16.0962 60.2075 16.22 60.2075 16.4056ZM60.4779 21.9741L60.2977 22.1597V22.2526H60.4329L60.523 22.1133V21.9741H60.4779ZM63.1368 14.967H62.9566V15.1526H63.0467L63.1368 15.0598V14.967Z"
        fill="#935F2E" />
    <defs>
        <linearGradient id="paint0_linear_205_254" x1="57.5577" y1="14.2486" x2="53.752"
            y2="41.9233" gradientUnits="userSpaceOnUse">
            <stop stop-color="#FFD600" />
            <stop offset="0.435" stop-color="#EDB816" />
            <stop offset="0.65" stop-color="#E4A920" />
            <stop offset="1" stop-color="#935F2E" />
        </linearGradient>
        <linearGradient id="paint1_linear_205_254" x1="20.8007" y1="25.3295" x2="28.2612"
            y2="-2.96354" gradientUnits="userSpaceOnUse">
            <stop stop-color="#FFD600" />
            <stop offset="0.77" stop-color="#D09A1B" />
            <stop offset="1" stop-color="#935F2E" />
        </linearGradient>
    </defs>
</svg>
    