<svg width="4800" height="1200" viewBox="0 0 4800 1200" fill="none"
    xmlns="http://www.w3.org/2000/svg">
    <path
        d="M600 4H4200C4529.16 4 4796 270.838 4796 600C4796 929.162 4529.16 1196 4200 1196H600C270.838 1196 4 929.162 4 600C4 270.838 270.838 4 600 4Z"
        fill="url(#paint0_diamond_107_590)" stroke="black" stroke-width="8" />
    <circle cx="900" cy="900" r="247" fill="#874717" stroke="black" stroke-width="6" />
    <circle cx="900" cy="300" r="247" fill="#5E290B" stroke="black" stroke-width="6" />
    <circle cx="1500" cy="300" r="247" fill="#5E290B" stroke="black" stroke-width="6" />
    <circle cx="1500" cy="900" r="247" fill="#874717" stroke="black" stroke-width="6" />
    <circle cx="2100" cy="300" r="247" fill="#5E290B" stroke="black" stroke-width="6" />
    <circle cx="2100" cy="900" r="247" fill="#874717" stroke="black" stroke-width="6" />
    <circle cx="2700" cy="300" r="247" fill="#5E290B" stroke="black" stroke-width="6" />
    <circle cx="2700" cy="900" r="247" fill="#874717" stroke="black" stroke-width="6" />
    <circle cx="3300" cy="300" r="247" fill="#5E290B" stroke="black" stroke-width="6" />
    <circle cx="3300" cy="900" r="247" fill="#874717" stroke="black" stroke-width="6" />
    <circle cx="3900" cy="300" r="247" fill="#5E290B" stroke="black" stroke-width="6" />
    <circle cx="3900" cy="900" r="247" fill="#874717" stroke="black" stroke-width="6" />
    <line x1="2.62268e-07" y1="597" x2="4800" y2="597" stroke="black" stroke-width="6" />
    <defs>
        <radialGradient id="paint0_diamond_107_590" cx="0" cy="0" r="1"
            gradientUnits="userSpaceOnUse"
            gradientTransform="translate(2327.5 600) rotate(-2.57783) scale(5102.66 1275.67)">
            <stop stop-color="#935F2E" />
            <stop offset="1" stop-color="#AD7540" />
        </radialGradient>
    </defs>
</svg>
    