<svg width="949" height="528" viewBox="0 0 949 528" fill="none" xmlns="http://www.w3.org/2000/svg">
    <g filter="url(#filter0_d_190_2)">
        <path
            d="M926.662 12H32.01C28.1385 12 25 15.1413 25 19.0162V492.608C25 496.483 28.1385 499.625 32.01 499.625H926.662C930.534 499.625 933.672 496.483 933.672 492.608V19.0162C933.672 15.1413 930.534 12 926.662 12Z"
            fill="#3C3B38" />
    </g>
    <path
        d="M929.291 97.0712H29.3813C26.9616 97.0712 25 99.0345 25 101.456V406.66C25 409.082 26.9616 411.045 29.3813 411.045H929.291C931.711 411.045 933.672 409.082 933.672 406.66V101.456C933.672 99.0345 931.711 97.0712 929.291 97.0712Z"
        fill="#262522" />
    <path
        d="M115.807 42.4566C115.807 43.8477 115.543 45.0312 115.017 46.0071C114.493 46.9829 113.78 47.7283 112.876 48.2432C111.975 48.754 110.963 49.0094 109.839 49.0094C108.706 49.0094 107.689 48.7519 106.789 48.237C105.889 47.7221 105.177 46.9767 104.654 46.0008C104.132 45.025 103.871 43.8435 103.871 42.4566C103.871 41.0655 104.132 39.882 104.654 38.9062C105.177 37.9303 105.889 37.1869 106.789 36.6762C107.689 36.1613 108.706 35.9039 109.839 35.9039C110.963 35.9039 111.975 36.1613 112.876 36.6762C113.78 37.1869 114.493 37.9303 115.017 38.9062C115.543 39.882 115.807 41.0655 115.807 42.4566ZM113.075 42.4566C113.075 41.5555 112.94 40.7955 112.67 40.1768C112.404 39.5581 112.029 39.0888 111.544 38.7691C111.058 38.4493 110.49 38.2895 109.839 38.2895C109.187 38.2895 108.619 38.4493 108.134 38.7691C107.648 39.0888 107.27 39.5581 107.001 40.1768C106.735 40.7955 106.602 41.5555 106.602 42.4566C106.602 43.3577 106.735 44.1176 107.001 44.7363C107.27 45.3551 107.648 45.8243 108.134 46.1441C108.619 46.4638 109.187 46.6237 109.839 46.6237C110.49 46.6237 111.058 46.4638 111.544 46.1441C112.029 45.8243 112.404 45.3551 112.67 44.7363C112.94 44.1176 113.075 43.3577 113.075 42.4566ZM122.837 39.2674V41.2606H117.081V39.2674H122.837ZM118.387 36.9752H121.039V45.8949C121.039 46.1399 121.077 46.331 121.151 46.4679C121.226 46.6009 121.329 46.6943 121.462 46.7482C121.599 46.8023 121.757 46.8293 121.935 46.8293C122.06 46.8293 122.184 46.8188 122.309 46.7981C122.433 46.7731 122.529 46.7545 122.594 46.742L123.011 48.7166C122.879 48.7581 122.692 48.8059 122.452 48.8598C122.211 48.918 121.919 48.9532 121.574 48.9657C120.936 48.9907 120.375 48.9055 119.894 48.7104C119.417 48.5152 119.046 48.2121 118.78 47.8009C118.515 47.3899 118.384 46.8708 118.387 46.2438V36.9752ZM124.564 48.8349V39.2674H127.216V48.8349H124.564ZM125.896 38.0341C125.502 38.0341 125.164 37.9033 124.882 37.6417C124.604 37.3759 124.465 37.0583 124.465 36.6887C124.465 36.3232 124.604 36.0097 124.882 35.7481C125.164 35.4824 125.502 35.3495 125.896 35.3495C126.29 35.3495 126.627 35.4824 126.905 35.7481C127.187 36.0097 127.328 36.3232 127.328 36.6887C127.328 37.0583 127.187 37.3759 126.905 37.6417C126.627 37.9033 126.29 38.0341 125.896 38.0341ZM134.424 39.2674V41.2606H128.668V39.2674H134.424ZM129.974 36.9752H132.626V45.8949C132.626 46.1399 132.662 46.331 132.737 46.4679C132.812 46.6009 132.916 46.6943 133.049 46.7482C133.186 46.8023 133.343 46.8293 133.521 46.8293C133.646 46.8293 133.77 46.8188 133.894 46.7981C134.019 46.7731 134.114 46.7545 134.181 46.742L134.598 48.7166C134.465 48.7581 134.278 48.8059 134.038 48.8598C133.797 48.918 133.505 48.9532 133.16 48.9657C132.521 48.9907 131.961 48.9055 131.48 48.7104C131.003 48.5152 130.631 48.2121 130.366 47.8009C130.1 47.3899 129.97 46.8708 129.974 46.2438V36.9752ZM140.367 49.0218C139.401 49.0218 138.565 48.8163 137.86 48.4051C137.158 47.9899 136.616 47.4127 136.235 46.6735C135.853 45.9302 135.662 45.0686 135.662 44.0886C135.662 43.1003 135.853 42.2365 136.235 41.4973C136.616 40.7541 137.158 40.1768 137.86 39.7657C138.565 39.3505 139.401 39.1429 140.367 39.1429C141.334 39.1429 142.168 39.3505 142.869 39.7657C143.574 40.1768 144.118 40.7541 144.5 41.4973C144.881 42.2365 145.072 43.1003 145.072 44.0886C145.072 45.0686 144.881 45.9302 144.5 46.6735C144.118 47.4127 143.574 47.9899 142.869 48.4051C142.168 48.8163 141.334 49.0218 140.367 49.0218ZM140.38 46.9663C140.819 46.9663 141.187 46.8417 141.481 46.5926C141.775 46.3393 141.998 45.9946 142.147 45.5586C142.3 45.1225 142.377 44.6263 142.377 44.0699C142.377 43.5134 142.3 43.0172 142.147 42.5812C141.998 42.1452 141.775 41.8005 141.481 41.5471C141.187 41.2939 140.819 41.1672 140.38 41.1672C139.935 41.1672 139.562 41.2939 139.26 41.5471C138.961 41.8005 138.735 42.1452 138.581 42.5812C138.432 43.0172 138.357 43.5134 138.357 44.0699C138.357 44.6263 138.432 45.1225 138.581 45.5586C138.735 45.9946 138.961 46.3393 139.26 46.5926C139.562 46.8417 139.935 46.9663 140.38 46.9663ZM155.42 48.8349H150.902V36.0782H155.457C156.739 36.0782 157.843 36.3336 158.768 36.8444C159.693 37.351 160.405 38.0797 160.903 39.0307C161.404 39.9817 161.656 41.1195 161.656 42.4442C161.656 43.7729 161.404 44.9149 160.903 45.87C160.405 46.8251 159.69 47.558 158.755 48.0688C157.827 48.5796 156.715 48.8349 155.42 48.8349ZM153.596 46.5241H155.308C156.105 46.5241 156.774 46.3829 157.318 46.1005C157.866 45.8139 158.276 45.3717 158.55 44.7737C158.828 44.1716 158.968 43.395 158.968 42.4442C158.968 41.5015 158.828 40.7312 158.55 40.1332C158.276 39.5353 157.868 39.0951 157.325 38.8127C156.78 38.5304 156.111 38.3892 155.314 38.3892H153.596V46.5241ZM166.328 49.0156C165.718 49.0156 165.175 48.9097 164.697 48.698C164.221 48.4819 163.843 48.1643 163.565 47.7449C163.291 47.3213 163.154 46.7939 163.154 46.1627C163.154 45.6313 163.252 45.1849 163.447 44.8235C163.641 44.4623 163.907 44.1716 164.243 43.9515C164.579 43.7315 164.961 43.5653 165.388 43.4532C165.82 43.3411 166.272 43.2622 166.745 43.2166C167.301 43.1584 167.749 43.1044 168.089 43.0546C168.429 43.0005 168.676 42.9217 168.83 42.8179C168.983 42.714 169.06 42.5604 169.06 42.3569V42.3195C169.06 41.9251 168.936 41.6198 168.687 41.4039C168.442 41.188 168.094 41.08 167.642 41.08C167.164 41.08 166.785 41.1859 166.502 41.3977C166.22 41.6053 166.034 41.8669 165.942 42.1825L163.49 41.9832C163.614 41.4018 163.86 40.8994 164.224 40.4759C164.59 40.0481 165.06 39.72 165.638 39.4917C166.218 39.2591 166.891 39.1429 167.654 39.1429C168.185 39.1429 168.693 39.2051 169.178 39.3297C169.667 39.4543 170.101 39.6473 170.479 39.909C170.861 40.1706 171.161 40.507 171.381 40.9181C171.601 41.325 171.711 41.813 171.711 42.3818V48.8349H169.197V47.5082H169.122C168.969 47.8072 168.763 48.0709 168.506 48.2993C168.249 48.5235 167.939 48.7 167.578 48.8287C167.218 48.9532 166.801 49.0156 166.328 49.0156ZM167.087 47.1843C167.477 47.1843 167.821 47.1075 168.12 46.9538C168.419 46.796 168.654 46.5842 168.824 46.3185C168.994 46.0528 169.079 45.7517 169.079 45.4153V44.4C168.995 44.4539 168.881 44.5039 168.737 44.5495C168.596 44.591 168.435 44.6305 168.258 44.6679C168.079 44.7011 167.9 44.7322 167.722 44.7613C167.543 44.7862 167.382 44.8091 167.237 44.8298C166.926 44.8754 166.654 44.9481 166.421 45.0478C166.189 45.1475 166.008 45.2824 165.88 45.4527C165.751 45.6188 165.687 45.8264 165.687 46.0756C165.687 46.4368 165.818 46.713 166.079 46.904C166.345 47.0909 166.68 47.1843 167.087 47.1843ZM173.768 48.8349V39.2674H176.338V40.9367H176.438C176.612 40.3429 176.904 39.8945 177.315 39.5913C177.726 39.284 178.199 39.1304 178.734 39.1304C178.867 39.1304 179.01 39.1387 179.163 39.1553C179.318 39.1719 179.452 39.1947 179.568 39.2238V41.5784C179.444 41.5409 179.271 41.5078 179.052 41.4786C178.832 41.4496 178.631 41.4351 178.448 41.4351C178.058 41.4351 177.71 41.5202 177.402 41.6904C177.1 41.8566 176.859 42.0891 176.681 42.388C176.507 42.6871 176.419 43.0317 176.419 43.422V48.8349H173.768ZM183.59 36.0782V48.8349H180.939V36.0782H183.59ZM191.669 42.5438V44.6492H185.857V42.5438H191.669ZM201.851 36.0782H204.546V44.3626C204.546 45.2928 204.324 46.1067 203.88 46.8044C203.44 47.502 202.824 48.046 202.032 48.4363C201.239 48.8225 200.316 49.0156 199.262 49.0156C198.204 49.0156 197.279 48.8225 196.487 48.4363C195.694 48.046 195.078 47.502 194.638 46.8044C194.198 46.1067 193.978 45.2928 193.978 44.3626V36.0782H196.673V44.1322C196.673 44.618 196.779 45.0499 196.991 45.4278C197.206 45.8056 197.509 46.1026 197.899 46.3185C198.289 46.5344 198.743 46.6424 199.262 46.6424C199.785 46.6424 200.239 46.5344 200.625 46.3185C201.015 46.1026 201.316 45.8056 201.527 45.4278C201.743 45.0499 201.851 44.618 201.851 44.1322V36.0782ZM206.664 48.8349V47.2528L211.343 41.4537V41.3852H206.825V39.2674H214.536V40.9928L210.142 46.6486V46.7171H214.698V48.8349H206.664ZM222.855 44.7613V39.2674H225.506V48.8349H222.961V47.0971H222.861C222.646 47.6577 222.286 48.1082 221.784 48.4488C221.287 48.7892 220.678 48.9595 219.961 48.9595C219.322 48.9595 218.76 48.8141 218.275 48.5235C217.789 48.2328 217.409 47.8196 217.136 47.2839C216.866 46.7482 216.729 46.1067 216.725 45.3592V39.2674H219.376V44.8859C219.38 45.4506 219.531 45.897 219.83 46.225C220.129 46.5531 220.529 46.7171 221.032 46.7171C221.35 46.7171 221.649 46.6445 221.928 46.4991C222.206 46.3496 222.43 46.1295 222.6 45.8389C222.774 45.5482 222.859 45.189 222.855 44.7613Z"
        fill="white" />
    <path
        d="M82.8329 31.2945H45.1541C41.2825 31.2945 38.144 34.4357 38.144 38.3107V76.0226C38.144 79.8976 41.2825 83.0388 45.1541 83.0388H82.8329C86.7044 83.0388 89.8429 79.8976 89.8429 76.0226V38.3107C89.8429 34.4357 86.7044 31.2945 82.8329 31.2945Z"
        fill="#D9D9D9" />
    <path
        d="M63.555 56.7282C68.3944 56.7282 72.3175 52.8016 72.3175 47.958C72.3175 43.1143 68.3944 39.1877 63.555 39.1877C58.7156 39.1877 54.7925 43.1143 54.7925 47.958C54.7925 52.8016 58.7156 56.7282 63.555 56.7282Z"
        fill="#222222" />
    <path
        d="M48.9609 68.3939C50.4091 62.2686 56.4831 58.9207 62.7722 58.9207H64.3379C70.6271 58.9207 76.701 62.2686 78.1492 68.3939C78.4294 69.579 78.6522 70.8193 78.7775 72.0796C78.8973 73.2846 77.9087 74.2686 76.6989 74.2686H50.4113C49.2015 74.2686 48.2128 73.2846 48.3326 72.0796C48.4579 70.8193 48.6807 69.579 48.9609 68.3939Z"
        fill="#222222" />
    <path d="M265.093 40.0648H237.929V45.3269H265.093V40.0648Z" fill="#FFE500" />
    <path d="M265.093 34.8026H237.929V40.0647H265.093V34.8026Z" fill="#841000" />
    <path d="M265.093 45.3269H237.929V50.589H265.093V45.3269Z" fill="black" />
    <path
        d="M109.197 439.509H111.861V448.404C111.861 449.226 111.676 449.939 111.307 450.546C110.942 451.152 110.434 451.62 109.783 451.948C109.131 452.276 108.374 452.44 107.511 452.44C106.743 452.44 106.046 452.305 105.42 452.035C104.798 451.761 104.304 451.345 103.939 450.789C103.574 450.229 103.393 449.525 103.398 448.677H106.08C106.088 449.014 106.156 449.303 106.285 449.543C106.418 449.78 106.598 449.963 106.826 450.091C107.059 450.216 107.333 450.278 107.648 450.278C107.979 450.278 108.26 450.208 108.488 450.067C108.721 449.921 108.897 449.71 109.017 449.431C109.137 449.153 109.197 448.811 109.197 448.404V439.509ZM114.04 452.265V442.698H116.69V452.265H114.04ZM115.372 441.465C114.977 441.465 114.639 441.334 114.357 441.072C114.079 440.806 113.94 440.489 113.94 440.119C113.94 439.754 114.079 439.44 114.357 439.178C114.639 438.913 114.977 438.78 115.372 438.78C115.765 438.78 116.101 438.913 116.379 439.178C116.661 439.44 116.802 439.754 116.802 440.119C116.802 440.489 116.661 440.806 116.379 441.072C116.101 441.334 115.765 441.465 115.372 441.465ZM122.337 452.421C121.61 452.421 120.953 452.234 120.364 451.86C119.779 451.482 119.314 450.928 118.969 450.197C118.629 449.462 118.459 448.562 118.459 447.494C118.459 446.398 118.636 445.486 118.989 444.76C119.341 444.028 119.81 443.483 120.395 443.122C120.984 442.756 121.629 442.573 122.331 442.573C122.865 442.573 123.311 442.665 123.669 442.847C124.03 443.026 124.32 443.25 124.54 443.52C124.764 443.785 124.934 444.048 125.05 444.305H125.131V439.509H127.776V452.265H125.162V450.733H125.05C124.925 450.999 124.749 451.263 124.521 451.524C124.297 451.781 124.004 451.995 123.643 452.165C123.287 452.336 122.851 452.421 122.337 452.421ZM123.177 450.31C123.604 450.31 123.965 450.193 124.259 449.961C124.558 449.724 124.787 449.394 124.945 448.97C125.106 448.547 125.187 448.05 125.187 447.481C125.187 446.913 125.108 446.418 124.951 445.999C124.793 445.58 124.564 445.256 124.265 445.027C123.968 444.799 123.604 444.685 123.177 444.685C122.741 444.685 122.374 444.803 122.075 445.04C121.777 445.276 121.55 445.604 121.397 446.024C121.243 446.444 121.167 446.93 121.167 447.481C121.167 448.038 121.243 448.53 121.397 448.958C121.554 449.382 121.78 449.713 122.075 449.954C122.374 450.191 122.741 450.31 123.177 450.31ZM134.312 452.452C133.329 452.452 132.482 452.253 131.773 451.854C131.068 451.452 130.524 450.882 130.142 450.147C129.76 449.408 129.569 448.535 129.569 447.525C129.569 446.541 129.76 445.677 130.142 444.934C130.524 444.191 131.062 443.612 131.754 443.196C132.451 442.781 133.268 442.573 134.207 442.573C134.837 442.573 135.424 442.675 135.967 442.879C136.515 443.078 136.992 443.379 137.399 443.782C137.81 444.185 138.129 444.691 138.357 445.302C138.585 445.908 138.699 446.618 138.699 447.432V448.161H130.628V446.517H136.204C136.204 446.134 136.121 445.796 135.955 445.501C135.789 445.206 135.559 444.976 135.264 444.81C134.973 444.639 134.636 444.554 134.249 444.554C133.847 444.554 133.491 444.648 133.18 444.834C132.872 445.017 132.632 445.264 132.458 445.575C132.283 445.883 132.194 446.225 132.189 446.603V448.167C132.189 448.64 132.277 449.049 132.451 449.394C132.629 449.739 132.881 450.004 133.204 450.191C133.527 450.378 133.911 450.472 134.355 450.472C134.65 450.472 134.92 450.43 135.164 450.346C135.41 450.264 135.619 450.139 135.793 449.973C135.967 449.807 136.1 449.604 136.191 449.362L138.643 449.525C138.519 450.114 138.264 450.629 137.878 451.069C137.496 451.506 137.003 451.846 136.397 452.091C135.795 452.332 135.1 452.452 134.312 452.452ZM146.733 452.265H143.844L148.245 439.509H151.718L156.111 452.265H153.223L150.031 442.423H149.931L146.733 452.265ZM146.552 447.251H153.373V449.356H146.552V447.251ZM162.565 442.698V444.691H156.665V442.698H162.565ZM158.015 452.265V442.007C158.015 441.313 158.15 440.738 158.42 440.281C158.693 439.824 159.067 439.482 159.54 439.253C160.013 439.025 160.55 438.911 161.152 438.911C161.559 438.911 161.929 438.942 162.266 439.004C162.606 439.066 162.859 439.122 163.025 439.172L162.552 441.166C162.448 441.132 162.319 441.101 162.166 441.072C162.017 441.043 161.864 441.029 161.706 441.029C161.316 441.029 161.044 441.12 160.89 441.303C160.737 441.482 160.661 441.732 160.661 442.056V452.265H158.015ZM168.161 452.452C167.194 452.452 166.358 452.247 165.653 451.836C164.952 451.42 164.41 450.843 164.029 450.104C163.647 449.361 163.456 448.499 163.456 447.519C163.456 446.531 163.647 445.667 164.029 444.928C164.41 444.184 164.952 443.607 165.653 443.196C166.358 442.781 167.194 442.573 168.161 442.573C169.128 442.573 169.961 442.781 170.663 443.196C171.368 443.607 171.912 444.184 172.293 444.928C172.675 445.667 172.866 446.531 172.866 447.519C172.866 448.499 172.675 449.361 172.293 450.104C171.912 450.843 171.368 451.42 170.663 451.836C169.961 452.247 169.128 452.452 168.161 452.452ZM168.174 450.396C168.613 450.396 168.981 450.272 169.275 450.023C169.569 449.769 169.791 449.425 169.941 448.989C170.094 448.553 170.171 448.057 170.171 447.501C170.171 446.944 170.094 446.447 169.941 446.011C169.791 445.575 169.569 445.231 169.275 444.977C168.981 444.725 168.613 444.598 168.174 444.598C167.729 444.598 167.356 444.725 167.053 444.977C166.754 445.231 166.528 445.575 166.375 446.011C166.226 446.447 166.151 446.944 166.151 447.501C166.151 448.057 166.226 448.553 166.375 448.989C166.528 449.425 166.754 449.769 167.053 450.023C167.356 450.272 167.729 450.396 168.174 450.396ZM177.241 439.509V452.265H174.589V439.509H177.241ZM182.09 452.446C181.48 452.446 180.937 452.34 180.459 452.129C179.983 451.913 179.605 451.594 179.327 451.175C179.053 450.752 178.916 450.225 178.916 449.593C178.916 449.062 179.014 448.615 179.209 448.254C179.404 447.893 179.669 447.602 180.006 447.382C180.341 447.162 180.723 446.995 181.151 446.884C181.582 446.772 182.034 446.693 182.507 446.647C183.064 446.588 183.511 446.535 183.851 446.485C184.191 446.431 184.439 446.352 184.592 446.248C184.746 446.145 184.822 445.991 184.822 445.788V445.75C184.822 445.355 184.698 445.05 184.449 444.834C184.205 444.619 183.856 444.511 183.404 444.511C182.926 444.511 182.547 444.616 182.265 444.828C181.982 445.036 181.796 445.297 181.705 445.613L179.253 445.414C179.377 444.833 179.622 444.33 179.987 443.906C180.352 443.478 180.823 443.15 181.4 442.922C181.981 442.689 182.653 442.573 183.416 442.573C183.947 442.573 184.455 442.636 184.941 442.76C185.43 442.885 185.864 443.078 186.241 443.339C186.623 443.601 186.924 443.937 187.144 444.349C187.363 444.755 187.474 445.243 187.474 445.812V452.265H184.959V450.938H184.885C184.731 451.238 184.526 451.501 184.269 451.729C184.011 451.954 183.702 452.13 183.341 452.259C182.98 452.384 182.563 452.446 182.09 452.446ZM182.85 450.615C183.24 450.615 183.584 450.538 183.883 450.384C184.182 450.226 184.416 450.015 184.586 449.749C184.756 449.483 184.841 449.182 184.841 448.846V447.83C184.758 447.885 184.644 447.935 184.499 447.98C184.358 448.021 184.198 448.061 184.02 448.099C183.841 448.131 183.663 448.163 183.484 448.192C183.306 448.217 183.144 448.24 182.999 448.26C182.688 448.306 182.416 448.378 182.184 448.478C181.952 448.578 181.771 448.713 181.642 448.883C181.514 449.049 181.45 449.257 181.45 449.506C181.45 449.868 181.58 450.143 181.841 450.334C182.107 450.521 182.443 450.615 182.85 450.615ZM189.58 452.265V439.509H192.231V444.305H192.312C192.428 444.048 192.596 443.785 192.816 443.52C193.041 443.25 193.331 443.026 193.687 442.847C194.048 442.665 194.497 442.573 195.032 442.573C195.729 442.573 196.372 442.756 196.961 443.122C197.55 443.483 198.021 444.028 198.374 444.76C198.727 445.486 198.903 446.398 198.903 447.494C198.903 448.562 198.731 449.462 198.387 450.197C198.046 450.928 197.581 451.482 196.993 451.86C196.407 452.234 195.752 452.421 195.025 452.421C194.511 452.421 194.074 452.336 193.713 452.165C193.356 451.995 193.063 451.781 192.835 451.524C192.607 451.263 192.433 450.999 192.312 450.733H192.194V452.265H189.58ZM192.175 447.481C192.175 448.05 192.254 448.547 192.412 448.97C192.569 449.394 192.798 449.724 193.097 449.961C193.395 450.193 193.758 450.31 194.185 450.31C194.617 450.31 194.982 450.191 195.28 449.954C195.579 449.713 195.805 449.382 195.959 448.958C196.117 448.53 196.196 448.038 196.196 447.481C196.196 446.93 196.119 446.444 195.966 446.024C195.812 445.604 195.585 445.276 195.287 445.04C194.989 444.803 194.621 444.685 194.185 444.685C193.754 444.685 193.389 444.799 193.09 445.027C192.795 445.256 192.569 445.58 192.412 445.999C192.254 446.418 192.175 446.913 192.175 447.481ZM200.672 452.265V442.698H203.323V452.265H200.672ZM202.004 441.465C201.61 441.465 201.271 441.334 200.989 441.072C200.711 440.806 200.572 440.489 200.572 440.119C200.572 439.754 200.711 439.44 200.989 439.178C201.271 438.913 201.61 438.78 202.004 438.78C202.398 438.78 202.734 438.913 203.012 439.178C203.294 439.44 203.435 439.754 203.435 440.119C203.435 440.489 203.294 440.806 203.012 441.072C202.734 441.334 202.398 441.465 202.004 441.465Z"
        fill="white" />
    <path
        d="M82.8329 433.848H45.1541C41.2825 433.848 38.144 436.989 38.144 440.864V478.576C38.144 482.451 41.2825 485.592 45.1541 485.592H82.8329C86.7044 485.592 89.8429 482.451 89.8429 478.576V440.864C89.8429 436.989 86.7044 433.848 82.8329 433.848Z"
        fill="#D9D9D9" />
    <path
        d="M63.555 459.282C68.3944 459.282 72.3175 455.355 72.3175 450.511C72.3175 445.668 68.3944 441.741 63.555 441.741C58.7156 441.741 54.7925 445.668 54.7925 450.511C54.7925 455.355 58.7156 459.282 63.555 459.282Z"
        fill="#222222" />
    <path
        d="M48.9609 470.948C50.4091 464.822 56.4831 461.474 62.7722 461.474H64.3379C70.6271 461.474 76.701 464.822 78.1492 470.948C78.4294 472.133 78.6522 473.373 78.7775 474.633C78.8973 475.838 77.9087 476.822 76.6989 476.822H50.4113C49.2015 476.822 48.2128 475.838 48.3326 474.633C48.4579 473.373 48.6807 472.133 48.9609 470.948Z"
        fill="#222222" />
    <path d="M242.311 443.495H215.147V448.757H242.311V443.495Z" fill="white" />
    <path d="M242.311 438.233H215.147V443.495H242.311V438.233Z" fill="#CE4A00" />
    <path d="M242.311 448.757H215.147V454.019H242.311V448.757Z" fill="#4A8400" />
    <path
        d="M195.431 145.746H761.489C791.977 145.746 816.693 170.483 816.693 200.998C816.693 231.514 791.977 256.251 761.489 256.251H195.431C164.943 256.251 140.227 231.514 140.227 200.998C140.227 170.483 164.943 145.746 195.431 145.746Z"
        fill="url(#paint0_radial_190_2)" stroke="#542002" />
    <path
        d="M195.431 258.882H761.489C791.977 258.882 816.693 283.619 816.693 314.134C816.693 344.649 791.977 369.387 761.489 369.387H195.431C164.943 369.387 140.227 344.649 140.227 314.134C140.227 283.619 164.943 258.882 195.431 258.882Z"
        fill="url(#paint1_radial_190_2)" stroke="#542002" />
    <path
        d="M200.69 359.229C226.056 359.229 246.62 338.647 246.62 313.258C246.62 287.869 226.056 267.287 200.69 267.287C175.323 267.287 154.759 287.869 154.759 313.258C154.759 338.647 175.323 359.229 200.69 359.229Z"
        fill="#874717" stroke="#5A2700" />
    <path
        d="M200.69 247.846C226.056 247.846 246.62 227.264 246.62 201.875C246.62 176.486 226.056 155.905 200.69 155.905C175.323 155.905 154.759 176.486 154.759 201.875C154.759 227.264 175.323 247.846 200.69 247.846Z"
        fill="#5E290B" stroke="#3B1500" />
    <path
        d="M311.973 247.846C337.34 247.846 357.904 227.264 357.904 201.875C357.904 176.486 337.34 155.905 311.973 155.905C286.607 155.905 266.043 176.486 266.043 201.875C266.043 227.264 286.607 247.846 311.973 247.846Z"
        fill="#5E290B" stroke="#3B1500" />
    <path
        d="M311.973 359.229C337.34 359.229 357.904 338.647 357.904 313.258C357.904 287.869 337.34 267.287 311.973 267.287C286.607 267.287 266.043 287.869 266.043 313.258C266.043 338.647 286.607 359.229 311.973 359.229Z"
        fill="#874717" stroke="#5A2700" />
    <path
        d="M423.257 247.846C448.624 247.846 469.187 227.264 469.187 201.875C469.187 176.486 448.624 155.905 423.257 155.905C397.891 155.905 377.327 176.486 377.327 201.875C377.327 227.264 397.891 247.846 423.257 247.846Z"
        fill="#5E290B" stroke="#3B1500" />
    <path
        d="M423.257 359.667C448.866 359.667 469.625 338.889 469.625 313.258C469.625 287.627 448.866 266.849 423.257 266.849C397.649 266.849 376.889 287.627 376.889 313.258C376.889 338.889 397.649 359.667 423.257 359.667Z"
        fill="#874717" />
    <path
        d="M423.257 357.475C447.656 357.475 467.435 337.678 467.435 313.258C467.435 288.838 447.656 269.042 423.257 269.042C398.858 269.042 379.079 288.838 379.079 313.258C379.079 337.678 398.858 357.475 423.257 357.475Z"
        stroke="#FFD600" stroke-width="5" />
    <path
        d="M534.542 247.846C559.908 247.846 580.472 227.264 580.472 201.875C580.472 176.486 559.908 155.905 534.542 155.905C509.175 155.905 488.612 176.486 488.612 201.875C488.612 227.264 509.175 247.846 534.542 247.846Z"
        fill="#5E290B" stroke="#3B1500" />
    <path
        d="M534.542 359.229C559.908 359.229 580.472 338.647 580.472 313.258C580.472 287.869 559.908 267.287 534.542 267.287C509.175 267.287 488.612 287.869 488.612 313.258C488.612 338.647 509.175 359.229 534.542 359.229Z"
        fill="#874717" stroke="#5A2700" />
    <path
        d="M645.826 247.846C671.192 247.846 691.756 227.264 691.756 201.875C691.756 176.486 671.192 155.905 645.826 155.905C620.459 155.905 599.896 176.486 599.896 201.875C599.896 227.264 620.459 247.846 645.826 247.846Z"
        fill="#5E290B" stroke="#3B1500" />
    <path
        d="M645.826 359.229C671.192 359.229 691.756 338.647 691.756 313.258C691.756 287.869 671.192 267.287 645.826 267.287C620.459 267.287 599.896 287.869 599.896 313.258C599.896 338.647 620.459 359.229 645.826 359.229Z"
        fill="#874717" stroke="#5A2700" />
    <path
        d="M757.11 247.846C782.476 247.846 803.04 227.264 803.04 201.875C803.04 176.486 782.476 155.905 757.11 155.905C731.743 155.905 711.179 176.486 711.179 201.875C711.179 227.264 731.743 247.846 757.11 247.846Z"
        fill="#5E290B" stroke="#3B1500" />
    <path
        d="M757.11 359.229C782.476 359.229 803.04 338.647 803.04 313.258C803.04 287.869 782.476 267.287 757.11 267.287C731.743 267.287 711.179 287.869 711.179 313.258C711.179 338.647 731.743 359.229 757.11 359.229Z"
        fill="#874717" stroke="#5A2700" />
    <path
        d="M188.444 305.119C201.671 316.61 209.46 305.369 211.701 298.313C213.745 286.595 204.078 283.233 197.674 284.361C185.282 286.395 175.219 293.629 188.444 305.119Z"
        fill="#685700" />
    <path
        d="M188.048 303.307C200.658 313.694 208.253 303.34 210.473 296.865C212.548 286.127 203.285 283.143 197.116 284.234C185.18 286.21 175.437 292.921 188.048 303.307Z"
        fill="#9F9A7D" />
    <path
        d="M174.495 323.942C174.013 341.464 187.636 340.359 194.508 337.616C204.854 331.762 201.317 322.151 196.382 317.912C186.95 309.615 174.978 306.42 174.495 323.942Z"
        fill="#685700" />
    <path
        d="M175.644 322.485C175.623 338.831 188.438 338.138 194.847 335.747C204.456 330.539 200.883 321.479 196.126 317.399C187.029 309.419 175.664 306.139 175.644 322.485Z"
        fill="#9F9A7D" />
    <path
        d="M204.547 325.929C210.007 342.584 222.455 336.937 227.998 332.031C235.76 323.023 229.186 315.174 223.111 312.852C211.432 308.233 199.086 309.273 204.547 325.929Z"
        fill="#685700" />
    <path
        d="M205.135 324.169C210.633 339.561 222.46 334.575 227.686 330.157C234.972 322.007 228.551 314.688 222.696 312.456C211.44 308.022 199.636 308.777 205.135 324.169Z"
        fill="#9F9A7D" />
    <path
        d="M300.605 304.242C313.831 315.733 321.621 304.492 323.862 297.436C325.906 285.718 316.239 282.356 309.834 283.484C297.442 285.518 287.38 292.752 300.605 304.242Z"
        fill="#685700" />
    <path
        d="M300.208 302.43C312.819 312.817 320.413 302.463 322.635 295.988C324.709 285.25 315.445 282.266 309.276 283.357C297.342 285.333 287.598 292.044 300.208 302.43Z"
        fill="#9F9A7D" />
    <path
        d="M286.656 323.065C286.174 340.587 299.797 339.482 306.668 336.739C317.014 330.885 313.478 321.274 308.543 317.035C299.11 308.738 287.139 305.543 286.656 323.065Z"
        fill="#685700" />
    <path
        d="M287.804 321.608C287.783 337.954 300.598 337.261 307.008 334.87C316.617 329.662 313.043 320.602 308.287 316.522C299.189 308.542 287.824 305.262 287.804 321.608Z"
        fill="#9F9A7D" />
    <path
        d="M316.707 325.051C322.168 341.707 334.616 336.06 340.158 331.154C347.92 322.146 341.347 314.297 335.271 311.975C323.592 307.356 311.247 308.396 316.707 325.051Z"
        fill="#685700" />
    <path
        d="M317.295 323.292C322.793 338.684 334.62 333.698 339.847 329.281C347.132 321.13 340.712 313.811 334.857 311.579C323.6 307.145 311.797 307.9 317.295 323.292Z"
        fill="#9F9A7D" />
    <path
        d="M236.177 352.285C241.5 352.285 245.815 347.966 245.815 342.638C245.815 337.31 241.5 332.99 236.177 332.99C230.853 332.99 226.538 337.31 226.538 342.638C226.538 347.966 230.853 352.285 236.177 352.285Z"
        fill="#5E290B" />
    <path
        d="M233.989 339.369V347.023H232.373V340.905H232.328L230.576 342.003V340.569L232.47 339.369H233.989ZM238.805 347.191C238.163 347.188 237.611 347.031 237.147 346.717C236.687 346.403 236.333 345.947 236.084 345.352C235.837 344.756 235.715 344.04 235.717 343.203C235.717 342.368 235.841 341.657 236.087 341.069C236.336 340.481 236.691 340.034 237.152 339.728C237.614 339.419 238.166 339.264 238.805 339.264C239.445 339.264 239.995 339.419 240.456 339.728C240.919 340.036 241.275 340.484 241.524 341.073C241.773 341.659 241.896 342.368 241.894 343.203C241.894 344.043 241.769 344.76 241.52 345.355C241.274 345.951 240.921 346.406 240.46 346.72C240 347.034 239.448 347.191 238.805 347.191ZM238.805 345.849C239.243 345.849 239.594 345.629 239.855 345.188C240.116 344.747 240.246 344.086 240.243 343.203C240.243 342.623 240.184 342.139 240.064 341.753C239.947 341.367 239.781 341.076 239.563 340.883C239.349 340.688 239.097 340.591 238.805 340.591C238.37 340.591 238.021 340.809 237.76 341.245C237.499 341.681 237.366 342.333 237.364 343.203C237.364 343.791 237.423 344.282 237.54 344.676C237.659 345.067 237.827 345.361 238.044 345.558C238.26 345.752 238.514 345.849 238.805 345.849Z"
        fill="white" />
    <path
        d="M186.008 206.169C203.034 202.061 198.412 189.188 193.973 183.264C185.626 174.796 177.279 180.722 174.479 186.597C168.939 197.876 168.982 210.276 186.008 206.169Z"
        fill="#685700" />
    <path
        d="M184.303 205.441C200.074 201.194 196.06 188.994 192.082 183.424C184.551 175.5 176.745 181.317 174.051 186.978C168.731 197.851 168.533 209.687 184.303 205.441Z"
        fill="#9F9A7D" />
    <path
        d="M193.223 228.464C207.197 239.03 214.207 227.285 215.964 220.093C217.209 208.263 207.337 205.566 201.023 207.126C188.798 209.997 179.249 217.899 193.223 228.464Z"
        fill="#685700" />
    <path
        d="M192.704 226.683C205.99 236.189 212.865 225.343 214.642 218.732C215.984 207.878 206.539 205.53 200.457 207.038C188.685 209.819 179.419 217.177 192.704 226.683Z"
        fill="#9F9A7D" />
    <path
        d="M212.285 205.127C229.004 210.347 231.637 196.923 230.863 189.559C228.041 178.004 217.839 178.804 212.424 182.407C201.886 189.243 195.565 199.908 212.285 205.127Z"
        fill="#685700" />
    <path
        d="M211.195 203.627C226.909 208.082 229.718 195.549 229.159 188.724C226.758 178.056 217.076 179.039 211.862 182.515C201.72 189.114 195.482 199.172 211.195 203.627Z"
        fill="#9F9A7D" />
    <path
        d="M235.3 183.019C240.624 183.019 244.939 178.7 244.939 173.372C244.939 168.044 240.624 163.725 235.3 163.725C229.977 163.725 225.662 168.044 225.662 173.372C225.662 178.7 229.977 183.019 235.3 183.019Z"
        fill="#874717" />
    <path
        d="M233.113 170.104V177.757H231.496V171.639H231.452L229.7 172.738V171.303L231.594 170.104H233.113ZM237.929 177.926C237.287 177.923 236.735 177.765 236.271 177.451C235.811 177.137 235.456 176.682 235.207 176.087C234.961 175.491 234.839 174.775 234.841 173.938C234.841 173.103 234.965 172.392 235.211 171.804C235.46 171.216 235.815 170.768 236.276 170.462C236.738 170.154 237.289 169.998 237.929 169.998C238.569 169.998 239.119 170.154 239.58 170.462C240.043 170.771 240.399 171.219 240.648 171.808C240.897 172.393 241.02 173.103 241.018 173.938C241.018 174.777 240.893 175.495 240.644 176.09C240.397 176.686 240.044 177.141 239.583 177.455C239.123 177.769 238.571 177.926 237.929 177.926ZM237.929 176.584C238.367 176.584 238.718 176.364 238.979 175.923C239.24 175.481 239.37 174.82 239.367 173.938C239.367 173.357 239.307 172.874 239.187 172.487C239.071 172.101 238.904 171.811 238.687 171.617C238.473 171.423 238.221 171.325 237.929 171.325C237.494 171.325 237.145 171.544 236.884 171.979C236.623 172.415 236.49 173.068 236.488 173.938C236.488 174.525 236.546 175.017 236.664 175.41C236.783 175.802 236.951 176.095 237.168 176.293C237.384 176.487 237.638 176.584 237.929 176.584Z"
        fill="white" />
    <path
        d="M346.584 183.019C351.908 183.019 356.223 178.7 356.223 173.372C356.223 168.044 351.908 163.725 346.584 163.725C341.261 163.725 336.946 168.044 336.946 173.372C336.946 178.7 341.261 183.019 346.584 183.019Z"
        fill="#874717" />
    <path
        d="M344.397 170.104V177.757H342.78V171.639H342.736L340.984 172.738V171.303L342.878 170.104H344.397ZM349.213 177.926C348.571 177.923 348.019 177.765 347.555 177.451C347.095 177.137 346.74 176.682 346.491 176.087C346.245 175.491 346.122 174.775 346.125 173.938C346.125 173.103 346.249 172.392 346.495 171.804C346.744 171.216 347.099 170.768 347.56 170.462C348.022 170.154 348.573 169.998 349.213 169.998C349.853 169.998 350.403 170.154 350.864 170.462C351.327 170.771 351.683 171.219 351.932 171.808C352.181 172.393 352.304 173.103 352.302 173.938C352.302 174.777 352.176 175.495 351.928 176.09C351.681 176.686 351.328 177.141 350.867 177.455C350.407 177.769 349.855 177.926 349.213 177.926ZM349.213 176.584C349.651 176.584 350.002 176.364 350.263 175.923C350.524 175.481 350.654 174.82 350.651 173.938C350.651 173.357 350.591 172.874 350.471 172.487C350.355 172.101 350.188 171.811 349.971 171.617C349.757 171.423 349.505 171.325 349.213 171.325C348.778 171.325 348.429 171.544 348.168 171.979C347.907 172.415 347.774 173.068 347.772 173.938C347.772 174.525 347.83 175.017 347.948 175.41C348.067 175.802 348.235 176.095 348.452 176.293C348.668 176.487 348.922 176.584 349.213 176.584Z"
        fill="white" />
    <path
        d="M298.182 206.169C315.207 202.061 310.585 189.188 306.146 183.264C297.8 174.796 289.453 180.722 286.652 186.597C281.112 197.876 281.155 210.276 298.182 206.169Z"
        fill="#685700" />
    <path
        d="M296.477 205.441C312.248 201.194 308.233 188.994 304.255 183.424C296.725 175.5 288.918 181.317 286.225 186.978C280.904 197.851 280.707 209.687 296.477 205.441Z"
        fill="#9F9A7D" />
    <path
        d="M305.396 228.464C319.371 239.03 326.381 227.285 328.138 220.093C329.383 208.263 319.51 205.566 313.196 207.126C300.971 209.997 291.422 217.899 305.396 228.464Z"
        fill="#685700" />
    <path
        d="M304.877 226.683C318.163 236.189 325.038 225.343 326.815 218.732C328.157 207.878 318.712 205.53 312.63 207.038C300.858 209.819 291.592 217.177 304.877 226.683Z"
        fill="#9F9A7D" />
    <path
        d="M324.458 205.127C341.177 210.347 343.81 196.923 343.036 189.559C340.215 178.004 330.012 178.804 324.597 182.407C314.059 189.243 307.739 199.908 324.458 205.127Z"
        fill="#685700" />
    <path
        d="M323.368 203.627C339.082 208.082 341.891 195.549 341.332 188.724C338.931 178.056 329.249 179.039 324.035 182.515C313.893 189.114 307.655 199.172 323.368 203.627Z"
        fill="#9F9A7D" />
    <path
        d="M410.342 206.169C427.368 202.061 422.745 189.188 418.306 183.264C409.96 174.796 401.614 180.722 398.812 186.597C393.273 197.876 393.316 210.276 410.342 206.169Z"
        fill="#685700" />
    <path
        d="M408.638 205.441C424.408 201.194 420.393 188.994 416.415 183.424C408.885 175.5 401.078 181.317 398.386 186.978C393.064 197.851 392.867 209.687 408.638 205.441Z"
        fill="#9F9A7D" />
    <path
        d="M417.556 228.464C431.531 239.03 438.541 227.285 440.298 220.093C441.543 208.263 431.67 205.566 425.357 207.126C413.131 209.997 403.582 217.899 417.556 228.464Z"
        fill="#685700" />
    <path
        d="M417.038 226.683C430.323 236.189 437.198 225.343 438.975 218.732C440.317 207.878 430.872 205.53 424.791 207.038C413.018 209.819 403.752 217.177 417.038 226.683Z"
        fill="#9F9A7D" />
    <path
        d="M436.618 205.127C453.337 210.347 455.97 196.923 455.196 189.559C452.375 178.004 442.173 178.804 436.757 182.407C426.22 189.243 419.899 199.908 436.618 205.127Z"
        fill="#685700" />
    <path
        d="M435.528 203.627C451.242 208.082 454.051 195.549 453.492 188.724C451.091 178.056 441.41 179.039 436.195 182.515C426.053 189.114 419.815 199.172 435.528 203.627Z"
        fill="#9F9A7D" />
    <path
        d="M459.634 183.019C464.957 183.019 469.273 178.7 469.273 173.372C469.273 168.044 464.957 163.725 459.634 163.725C454.311 163.725 449.995 168.044 449.995 173.372C449.995 178.7 454.311 183.019 459.634 183.019Z"
        fill="#874717" />
    <path
        d="M457.447 170.104V177.757H455.83V171.639H455.785L454.035 172.738V171.303L455.927 170.104H457.447ZM462.263 177.926C461.621 177.923 461.068 177.765 460.605 177.451C460.145 177.137 459.79 176.682 459.541 176.087C459.295 175.491 459.173 174.775 459.175 173.938C459.175 173.103 459.298 172.392 459.545 171.804C459.793 171.216 460.148 170.768 460.609 170.462C461.072 170.154 461.623 169.998 462.263 169.998C462.903 169.998 463.453 170.154 463.914 170.462C464.376 170.771 464.733 171.219 464.982 171.808C465.231 172.393 465.353 173.103 465.351 173.938C465.351 174.777 465.227 175.495 464.978 176.09C464.731 176.686 464.378 177.141 463.917 177.455C463.457 177.769 462.905 177.926 462.263 177.926ZM462.263 176.584C462.701 176.584 463.051 176.364 463.312 175.923C463.574 175.481 463.703 174.82 463.701 173.938C463.701 173.357 463.641 172.874 463.522 172.487C463.404 172.101 463.238 171.811 463.021 171.617C462.807 171.423 462.554 171.325 462.263 171.325C461.827 171.325 461.479 171.544 461.217 171.979C460.956 172.415 460.824 173.068 460.822 173.938C460.822 174.525 460.88 175.017 460.997 175.41C461.117 175.802 461.285 176.095 461.501 176.293C461.718 176.487 461.972 176.584 462.263 176.584Z"
        fill="white" />
    <path
        d="M570.918 183.019C576.241 183.019 580.557 178.7 580.557 173.372C580.557 168.044 576.241 163.725 570.918 163.725C565.594 163.725 561.279 168.044 561.279 173.372C561.279 178.7 565.594 183.019 570.918 183.019Z"
        fill="#874717" />
    <path
        d="M568.73 170.104V177.757H567.114V171.639H567.069L565.318 172.738V171.303L567.211 170.104H568.73ZM573.546 177.926C572.905 177.923 572.352 177.765 571.888 177.451C571.428 177.137 571.074 176.682 570.825 176.087C570.578 175.491 570.457 174.775 570.458 173.938C570.458 173.103 570.582 172.392 570.828 171.804C571.077 171.216 571.432 170.768 571.893 170.462C572.356 170.154 572.907 169.998 573.546 169.998C574.187 169.998 574.736 170.154 575.197 170.462C575.66 170.771 576.016 171.219 576.265 171.808C576.514 172.393 576.637 173.103 576.635 173.938C576.635 174.777 576.511 175.495 576.262 176.09C576.015 176.686 575.662 177.141 575.201 177.455C574.741 177.769 574.189 177.926 573.546 177.926ZM573.546 176.584C573.984 176.584 574.335 176.364 574.596 175.923C574.857 175.481 574.987 174.82 574.984 173.938C574.984 173.357 574.925 172.874 574.806 172.487C574.688 172.101 574.522 171.811 574.305 171.617C574.09 171.423 573.838 171.325 573.546 171.325C573.111 171.325 572.763 171.544 572.501 171.979C572.24 172.415 572.108 173.068 572.106 173.938C572.106 174.525 572.164 175.017 572.281 175.41C572.4 175.802 572.568 176.095 572.785 176.293C573.001 176.487 573.255 176.584 573.546 176.584Z"
        fill="white" />
    <path
        d="M522.515 206.169C539.541 202.061 534.919 189.188 530.48 183.264C522.133 174.796 513.787 180.722 510.987 186.597C505.446 197.876 505.49 210.276 522.515 206.169Z"
        fill="#685700" />
    <path
        d="M520.811 205.441C536.582 201.194 532.567 188.994 528.589 183.424C521.058 175.5 513.252 181.317 510.559 186.978C505.237 197.851 505.04 209.687 520.811 205.441Z"
        fill="#9F9A7D" />
    <path
        d="M529.73 228.464C543.705 239.03 550.714 227.285 552.472 220.093C553.716 208.263 543.844 205.566 537.53 207.126C525.305 209.997 515.755 217.899 529.73 228.464Z"
        fill="#685700" />
    <path
        d="M529.211 226.683C542.497 236.189 549.372 225.343 551.149 218.732C552.49 207.878 543.045 205.53 536.965 207.038C525.191 209.819 515.925 217.177 529.211 226.683Z"
        fill="#9F9A7D" />
    <path
        d="M548.791 205.127C565.511 210.347 568.143 196.923 567.371 189.559C564.548 178.004 554.346 178.804 548.931 182.407C538.393 189.243 532.073 199.908 548.791 205.127Z"
        fill="#685700" />
    <path
        d="M547.702 203.627C563.415 208.082 566.224 195.549 565.665 188.724C563.265 178.056 553.583 179.039 548.368 182.515C538.227 189.114 531.988 199.172 547.702 203.627Z"
        fill="#9F9A7D" />
    <path
        d="M633.786 206.169C650.812 202.061 646.189 189.188 641.75 183.264C633.404 174.796 625.058 180.722 622.256 186.597C616.717 197.876 616.76 210.276 633.786 206.169Z"
        fill="#685700" />
    <path
        d="M632.082 205.441C647.853 201.194 643.838 188.994 639.86 183.424C632.329 175.5 624.523 181.317 621.83 186.978C616.508 197.851 616.311 209.687 632.082 205.441Z"
        fill="#9F9A7D" />
    <path
        d="M641 228.464C654.975 239.03 661.985 227.285 663.743 220.093C664.987 208.263 655.114 205.566 648.801 207.126C636.575 209.997 627.026 217.899 641 228.464Z"
        fill="#685700" />
    <path
        d="M640.482 226.683C653.767 236.189 660.642 225.343 662.419 218.732C663.761 207.878 654.316 205.53 648.235 207.038C636.462 209.819 627.196 217.177 640.482 226.683Z"
        fill="#9F9A7D" />
    <path
        d="M660.062 205.127C676.781 210.347 679.414 196.923 678.641 189.559C675.819 178.004 665.617 178.804 660.202 182.407C649.664 189.243 643.344 199.908 660.062 205.127Z"
        fill="#685700" />
    <path
        d="M658.972 203.627C674.686 208.082 677.495 195.549 676.936 188.724C674.535 178.056 664.854 179.039 659.639 182.515C649.497 189.114 643.259 199.172 658.972 203.627Z"
        fill="#9F9A7D" />
    <path
        d="M683.078 183.019C688.401 183.019 692.716 178.7 692.716 173.372C692.716 168.044 688.401 163.725 683.078 163.725C677.754 163.725 673.439 168.044 673.439 173.372C673.439 178.7 677.754 183.019 683.078 183.019Z"
        fill="#874717" />
    <path
        d="M680.891 170.104V177.757H679.274V171.639H679.229L677.479 172.738V171.303L679.371 170.104H680.891ZM685.707 177.926C685.065 177.923 684.512 177.765 684.049 177.451C683.589 177.137 683.234 176.682 682.985 176.087C682.739 175.491 682.617 174.775 682.619 173.938C682.619 173.103 682.742 172.392 682.988 171.804C683.237 171.216 683.592 170.768 684.053 170.462C684.516 170.154 685.067 169.998 685.707 169.998C686.347 169.998 686.896 170.154 687.357 170.462C687.82 170.771 688.177 171.219 688.426 171.808C688.674 172.393 688.797 173.103 688.795 173.938C688.795 174.777 688.671 175.495 688.422 176.09C688.175 176.686 687.822 177.141 687.361 177.455C686.901 177.769 686.349 177.926 685.707 177.926ZM685.707 176.584C686.145 176.584 686.495 176.364 686.756 175.923C687.017 175.481 687.147 174.82 687.144 173.938C687.144 173.357 687.085 172.874 686.966 172.487C686.848 172.101 686.682 171.811 686.465 171.617C686.251 171.423 685.998 171.325 685.707 171.325C685.271 171.325 684.923 171.544 684.661 171.979C684.4 172.415 684.268 173.068 684.266 173.938C684.266 174.525 684.324 175.017 684.441 175.41C684.56 175.802 684.729 176.095 684.945 176.293C685.161 176.487 685.416 176.584 685.707 176.584Z"
        fill="white" />
    <path
        d="M794.362 183.019C799.685 183.019 804.001 178.7 804.001 173.372C804.001 168.044 799.685 163.725 794.362 163.725C789.039 163.725 784.723 168.044 784.723 173.372C784.723 178.7 789.039 183.019 794.362 183.019Z"
        fill="#874717" />
    <path
        d="M792.175 170.104V177.757H790.558V171.639H790.513L788.762 172.738V171.303L790.655 170.104H792.175ZM796.99 177.926C796.349 177.923 795.796 177.765 795.333 177.451C794.873 177.137 794.518 176.682 794.269 176.087C794.023 175.491 793.901 174.775 793.903 173.938C793.903 173.103 794.026 172.392 794.272 171.804C794.521 171.216 794.876 170.768 795.337 170.462C795.8 170.154 796.351 169.998 796.99 169.998C797.631 169.998 798.18 170.154 798.641 170.462C799.104 170.771 799.461 171.219 799.709 171.808C799.958 172.393 800.081 173.103 800.079 173.938C800.079 174.777 799.955 175.495 799.706 176.09C799.459 176.686 799.106 177.141 798.645 177.455C798.185 177.769 797.633 177.926 796.99 177.926ZM796.99 176.584C797.429 176.584 797.779 176.364 798.04 175.923C798.301 175.481 798.431 174.82 798.428 173.938C798.428 173.357 798.369 172.874 798.25 172.487C798.132 172.101 797.966 171.811 797.749 171.617C797.535 171.423 797.282 171.325 796.99 171.325C796.555 171.325 796.207 171.544 795.945 171.979C795.684 172.415 795.552 173.068 795.55 173.938C795.55 174.525 795.608 175.017 795.725 175.41C795.844 175.802 796.013 176.095 796.229 176.293C796.445 176.487 796.7 176.584 796.99 176.584Z"
        fill="white" />
    <path
        d="M745.959 206.169C762.985 202.061 758.363 189.188 753.924 183.264C745.577 174.796 737.231 180.722 734.431 186.597C728.89 197.876 728.934 210.276 745.959 206.169Z"
        fill="#685700" />
    <path
        d="M744.255 205.441C760.026 201.194 756.011 188.994 752.033 183.424C744.502 175.5 736.697 181.317 734.003 186.978C728.681 197.851 728.484 209.687 744.255 205.441Z"
        fill="#9F9A7D" />
    <path
        d="M753.174 228.464C767.149 239.03 774.158 227.285 775.916 220.093C777.16 208.263 767.288 205.566 760.974 207.126C748.748 209.997 739.199 217.899 753.174 228.464Z"
        fill="#685700" />
    <path
        d="M752.655 226.683C765.941 236.189 772.816 225.343 774.593 218.732C775.934 207.878 766.489 205.53 760.409 207.038C748.636 209.819 739.369 217.177 752.655 226.683Z"
        fill="#9F9A7D" />
    <path
        d="M772.236 205.127C788.955 210.347 791.588 196.923 790.815 189.559C787.992 178.004 777.79 178.804 772.375 182.407C761.837 189.243 755.517 199.908 772.236 205.127Z"
        fill="#685700" />
    <path
        d="M771.146 203.627C786.859 208.082 789.669 195.549 789.11 188.724C786.709 178.056 777.027 179.039 771.812 182.515C761.671 189.114 755.433 199.172 771.146 203.627Z"
        fill="#9F9A7D" />
    <path
        d="M348.337 352.285C353.66 352.285 357.976 347.966 357.976 342.638C357.976 337.31 353.66 332.99 348.337 332.99C343.013 332.99 338.698 337.31 338.698 342.638C338.698 347.966 343.013 352.285 348.337 352.285Z"
        fill="#5E290B" />
    <path
        d="M346.15 339.369V347.023H344.533V340.905H344.488L342.737 342.003V340.569L344.63 339.369H346.15ZM350.965 347.191C350.323 347.188 349.771 347.031 349.308 346.717C348.848 346.403 348.493 345.947 348.244 345.352C347.998 344.756 347.875 344.04 347.878 343.203C347.878 342.368 348.001 341.657 348.247 341.069C348.496 340.481 348.851 340.034 349.312 339.728C349.775 339.419 350.326 339.264 350.965 339.264C351.605 339.264 352.155 339.419 352.616 339.728C353.079 340.036 353.436 340.484 353.684 341.073C353.933 341.659 354.056 342.368 354.054 343.203C354.054 344.043 353.929 344.76 353.68 345.355C353.434 345.951 353.081 346.406 352.62 346.72C352.16 347.034 351.608 347.191 350.965 347.191ZM350.965 345.849C351.404 345.849 351.754 345.629 352.015 345.188C352.276 344.747 352.406 344.086 352.403 343.203C352.403 342.623 352.344 342.139 352.224 341.753C352.107 341.367 351.941 341.076 351.723 340.883C351.51 340.688 351.257 340.591 350.965 340.591C350.53 340.591 350.181 340.809 349.92 341.245C349.659 341.681 349.527 342.333 349.524 343.203C349.524 343.791 349.583 344.282 349.7 344.676C349.819 345.067 349.988 345.361 350.204 345.558C350.42 345.752 350.675 345.849 350.965 345.849Z"
        fill="white" />
    <path
        d="M412.156 304.242C425.381 315.733 433.171 304.492 435.413 297.436C437.457 285.718 427.79 282.356 421.386 283.484C408.994 285.518 398.93 292.752 412.156 304.242Z"
        fill="#685700" />
    <path
        d="M411.759 302.43C424.369 312.817 431.963 302.463 434.185 295.988C436.26 285.25 426.996 282.266 420.826 283.357C408.892 285.333 399.148 292.044 411.759 302.43Z"
        fill="#9F9A7D" />
    <path
        d="M398.207 323.065C397.724 340.587 411.347 339.482 418.219 336.739C428.565 330.885 425.028 321.274 420.094 317.035C410.661 308.738 398.69 305.543 398.207 323.065Z"
        fill="#685700" />
    <path
        d="M399.354 321.608C399.334 337.954 412.149 337.261 418.559 334.87C428.167 329.662 424.594 320.602 419.837 316.522C410.739 308.542 399.375 305.262 399.354 321.608Z"
        fill="#9F9A7D" />
    <path
        d="M428.258 325.051C433.718 341.707 446.167 336.06 451.708 331.154C459.471 322.146 452.897 314.297 446.822 311.975C435.143 307.356 422.797 308.396 428.258 325.051Z"
        fill="#685700" />
    <path
        d="M428.846 323.292C434.343 338.684 446.171 333.698 451.397 329.281C458.683 321.13 452.262 313.811 446.408 311.579C435.151 307.145 423.347 307.9 428.846 323.292Z"
        fill="#9F9A7D" />
    <path
        d="M459.887 352.285C465.21 352.285 469.526 347.966 469.526 342.638C469.526 337.31 465.21 332.99 459.887 332.99C454.564 332.99 450.248 337.31 450.248 342.638C450.248 347.966 454.564 352.285 459.887 352.285Z"
        fill="#5E290B" />
    <path
        d="M459.829 347.127C459.271 347.127 458.775 347.031 458.339 346.839C457.906 346.646 457.563 346.379 457.313 346.04C457.063 345.698 456.935 345.305 456.928 344.859H458.556C458.566 345.046 458.627 345.21 458.738 345.352C458.853 345.491 459.005 345.6 459.194 345.677C459.383 345.755 459.596 345.793 459.833 345.793C460.079 345.793 460.297 345.749 460.486 345.662C460.676 345.575 460.824 345.455 460.931 345.3C461.038 345.145 461.091 344.967 461.091 344.765C461.091 344.561 461.034 344.38 460.919 344.223C460.807 344.064 460.646 343.939 460.434 343.85C460.224 343.76 459.976 343.715 459.687 343.715H458.974V342.527H459.687C459.931 342.527 460.146 342.484 460.333 342.4C460.522 342.315 460.669 342.198 460.774 342.048C460.878 341.896 460.931 341.719 460.931 341.518C460.931 341.326 460.884 341.157 460.792 341.013C460.703 340.866 460.576 340.751 460.411 340.67C460.25 340.587 460.061 340.546 459.844 340.546C459.625 340.546 459.424 340.586 459.243 340.665C459.061 340.742 458.915 340.854 458.806 340.998C458.696 341.142 458.638 341.312 458.631 341.506H457.08C457.088 341.065 457.214 340.677 457.458 340.341C457.702 340.004 458.03 339.741 458.444 339.552C458.859 339.36 459.329 339.264 459.851 339.264C460.38 339.264 460.841 339.36 461.236 339.552C461.633 339.743 461.94 340.003 462.159 340.329C462.381 340.653 462.49 341.017 462.488 341.42C462.49 341.849 462.357 342.207 462.088 342.493C461.822 342.78 461.475 342.961 461.046 343.038V343.099C461.609 343.171 462.037 343.366 462.331 343.686C462.627 344.001 462.773 344.398 462.772 344.874C462.773 345.31 462.648 345.697 462.394 346.036C462.143 346.375 461.796 346.641 461.352 346.836C460.91 347.031 460.401 347.127 459.829 347.127Z"
        fill="white" />
    <path
        d="M534.542 359.667C560.151 359.667 580.91 338.889 580.91 313.258C580.91 287.627 560.151 266.849 534.542 266.849C508.933 266.849 488.174 287.627 488.174 313.258C488.174 338.889 508.933 359.667 534.542 359.667Z"
        fill="#FFD600" />
    <path
        d="M523.44 304.242C536.665 315.733 544.455 304.492 546.697 297.436C548.741 285.718 539.074 282.356 532.669 283.484C520.278 285.518 510.214 292.752 523.44 304.242Z"
        fill="#685700" />
    <path
        d="M523.043 302.43C535.653 312.817 543.247 302.463 545.469 295.988C547.544 285.25 538.28 282.266 532.11 283.357C520.176 285.333 510.432 292.044 523.043 302.43Z"
        fill="#9F9A7D" />
    <path
        d="M509.491 323.065C509.008 340.587 522.631 339.482 529.503 336.739C539.849 330.885 536.312 321.274 531.378 317.035C521.945 308.738 509.974 305.543 509.491 323.065Z"
        fill="#685700" />
    <path
        d="M510.638 321.608C510.618 337.954 523.433 337.261 529.843 334.87C539.451 329.662 535.878 320.602 531.121 316.522C522.023 308.542 510.659 305.262 510.638 321.608Z"
        fill="#9F9A7D" />
    <path
        d="M539.542 325.051C545.002 341.707 557.451 336.06 562.992 331.154C570.755 322.146 564.181 314.297 558.106 311.975C546.427 307.356 534.081 308.396 539.542 325.051Z"
        fill="#685700" />
    <path
        d="M540.13 323.292C545.627 338.684 557.455 333.698 562.681 329.281C569.967 321.13 563.546 313.811 557.692 311.579C546.435 307.145 534.631 307.9 540.13 323.292Z"
        fill="#9F9A7D" />
    <path
        d="M571.171 352.285C576.494 352.285 580.81 347.966 580.81 342.638C580.81 337.31 576.494 332.99 571.171 332.99C565.848 332.99 561.532 337.31 561.532 342.638C561.532 347.966 565.848 352.285 571.171 352.285Z"
        fill="#5E290B" />
    <path
        d="M568.985 339.369V347.023H567.368V340.905H567.323L565.572 342.003V340.569L567.464 339.369H568.985ZM573.801 347.191C573.158 347.188 572.605 347.031 572.143 346.717C571.682 346.403 571.327 345.947 571.078 345.352C570.832 344.756 570.71 344.04 570.713 343.203C570.713 342.368 570.835 341.657 571.083 341.069C571.331 340.481 571.685 340.034 572.146 339.728C572.609 339.419 573.161 339.264 573.801 339.264C574.44 339.264 574.991 339.419 575.451 339.728C575.914 340.036 576.27 340.484 576.519 341.073C576.768 341.659 576.891 342.368 576.889 343.203C576.889 344.043 576.764 344.76 576.515 345.355C576.269 345.951 575.915 346.406 575.455 346.72C574.994 347.034 574.443 347.191 573.801 347.191ZM573.801 345.849C574.239 345.849 574.588 345.629 574.85 345.188C575.112 344.747 575.24 344.086 575.238 343.203C575.238 342.623 575.178 342.139 575.059 341.753C574.942 341.367 574.775 341.076 574.559 340.883C574.345 340.688 574.092 340.591 573.801 340.591C573.365 340.591 573.016 340.809 572.755 341.245C572.493 341.681 572.362 342.333 572.359 343.203C572.359 343.791 572.418 344.282 572.534 344.676C572.655 345.067 572.822 345.361 573.038 345.558C573.256 345.752 573.509 345.849 573.801 345.849Z"
        fill="white" />
    <path
        d="M645.826 359.667C671.435 359.667 692.194 338.889 692.194 313.258C692.194 287.627 671.435 266.849 645.826 266.849C620.217 266.849 599.458 287.627 599.458 313.258C599.458 338.889 620.217 359.667 645.826 359.667Z"
        fill="#FFD600" />
    <path
        d="M634.724 304.242C647.949 315.733 655.739 304.492 657.98 297.436C660.024 285.718 650.358 282.356 643.953 283.484C631.561 285.518 621.497 292.752 634.724 304.242Z"
        fill="#685700" />
    <path
        d="M634.327 302.43C646.937 312.817 654.531 302.463 656.753 295.988C658.828 285.25 649.564 282.266 643.394 283.357C631.46 285.333 621.716 292.044 634.327 302.43Z"
        fill="#9F9A7D" />
    <path
        d="M620.775 323.065C620.292 340.587 633.915 339.482 640.786 336.739C651.133 330.885 647.596 321.274 642.662 317.035C633.229 308.738 621.258 305.543 620.775 323.065Z"
        fill="#685700" />
    <path
        d="M621.922 321.608C621.902 337.954 634.717 337.261 641.126 334.87C650.735 329.662 647.162 320.602 642.405 316.522C633.307 308.542 621.943 305.262 621.922 321.608Z"
        fill="#9F9A7D" />
    <path
        d="M650.826 325.051C656.286 341.707 668.735 336.06 674.276 331.154C682.039 322.146 675.465 314.297 669.39 311.975C657.711 307.356 645.365 308.396 650.826 325.051Z"
        fill="#685700" />
    <path
        d="M651.414 323.292C656.911 338.684 668.739 333.698 673.965 329.281C681.251 321.13 674.83 313.811 668.976 311.579C657.719 307.145 645.915 307.9 651.414 323.292Z"
        fill="#9F9A7D" />
    <path
        d="M682.455 352.285C687.778 352.285 692.094 347.966 692.094 342.638C692.094 337.31 687.778 332.99 682.455 332.99C677.132 332.99 672.816 337.31 672.816 342.638C672.816 347.966 677.132 352.285 682.455 352.285Z"
        fill="#5E290B" />
    <path
        d="M680.268 339.369V347.023H678.652V340.905H678.606L676.855 342.003V340.569L678.748 339.369H680.268ZM685.084 347.191C684.442 347.188 683.889 347.031 683.426 346.717C682.966 346.403 682.611 345.947 682.362 345.352C682.116 344.756 681.994 344.04 681.996 343.203C681.996 342.368 682.119 341.657 682.366 341.069C682.615 340.481 682.969 340.034 683.43 339.728C683.893 339.419 684.445 339.264 685.084 339.264C685.724 339.264 686.274 339.419 686.734 339.728C687.198 340.036 687.554 340.484 687.802 341.073C688.051 341.659 688.175 342.368 688.172 343.203C688.172 344.043 688.048 344.76 687.799 345.355C687.553 345.951 687.199 346.406 686.739 346.72C686.278 347.034 685.727 347.191 685.084 347.191ZM685.084 345.849C685.522 345.849 685.872 345.629 686.133 345.188C686.395 344.747 686.524 344.086 686.521 343.203C686.521 342.623 686.462 342.139 686.343 341.753C686.225 341.367 686.059 341.076 685.842 340.883C685.628 340.688 685.375 340.591 685.084 340.591C684.649 340.591 684.3 340.809 684.039 341.245C683.777 341.681 683.646 342.333 683.643 343.203C683.643 343.791 683.702 344.282 683.818 344.676C683.938 345.067 684.106 345.361 684.322 345.558C684.539 345.752 684.793 345.849 685.084 345.849Z"
        fill="white" />
    <path
        d="M757.11 359.667C782.718 359.667 803.478 338.889 803.478 313.258C803.478 287.627 782.718 266.849 757.11 266.849C731.501 266.849 710.741 287.627 710.741 313.258C710.741 338.889 731.501 359.667 757.11 359.667Z"
        fill="#FFD600" />
    <path
        d="M746.008 304.242C759.234 315.733 767.023 304.492 769.264 297.436C771.308 285.718 761.642 282.356 755.237 283.484C742.845 285.518 732.781 292.752 746.008 304.242Z"
        fill="#685700" />
    <path
        d="M745.611 302.43C758.221 312.817 765.815 302.463 768.037 295.988C770.112 285.25 760.848 282.266 754.678 283.357C742.744 285.333 733.001 292.044 745.611 302.43Z"
        fill="#9F9A7D" />
    <path
        d="M732.059 323.065C731.576 340.587 745.199 339.482 752.071 336.739C762.417 330.885 758.88 321.274 753.946 317.035C744.513 308.738 732.541 305.543 732.059 323.065Z"
        fill="#685700" />
    <path
        d="M733.206 321.608C733.185 337.954 746.001 337.261 752.41 334.87C762.018 329.662 758.446 320.602 753.689 316.522C744.591 308.542 733.227 305.262 733.206 321.608Z"
        fill="#9F9A7D" />
    <path
        d="M762.11 325.051C767.57 341.707 780.018 336.06 785.561 331.154C793.323 322.146 786.749 314.297 780.674 311.975C768.995 307.356 756.649 308.396 762.11 325.051Z"
        fill="#685700" />
    <path
        d="M762.698 323.292C768.196 338.684 780.023 333.698 785.249 329.281C792.535 321.13 786.114 313.811 780.259 311.579C769.003 307.145 757.199 307.9 762.698 323.292Z"
        fill="#9F9A7D" />
    <path
        d="M793.739 352.285C799.062 352.285 803.378 347.966 803.378 342.638C803.378 337.31 799.062 332.99 793.739 332.99C788.416 332.99 784.1 337.31 784.1 342.638C784.1 347.966 788.416 352.285 793.739 352.285Z"
        fill="#5E290B" />
    <path
        d="M791.553 339.369V347.023H789.936V340.905H789.89L788.14 342.003V340.569L790.032 339.369H791.553ZM796.369 347.191C795.726 347.188 795.173 347.031 794.711 346.717C794.25 346.403 793.895 345.947 793.646 345.352C793.4 344.756 793.278 344.04 793.281 343.203C793.281 342.368 793.403 341.657 793.65 341.069C793.899 340.481 794.253 340.034 794.714 339.728C795.177 339.419 795.729 339.264 796.369 339.264C797.008 339.264 797.558 339.419 798.018 339.728C798.482 340.036 798.838 340.484 799.087 341.073C799.335 341.659 799.459 342.368 799.456 343.203C799.456 344.043 799.332 344.76 799.083 345.355C798.837 345.951 798.483 346.406 798.023 346.72C797.562 347.034 797.011 347.191 796.369 347.191ZM796.369 345.849C796.807 345.849 797.156 345.629 797.417 345.188C797.679 344.747 797.808 344.086 797.806 343.203C797.806 342.623 797.746 342.139 797.627 341.753C797.509 341.367 797.343 341.076 797.126 340.883C796.913 340.688 796.659 340.591 796.369 340.591C795.933 340.591 795.584 340.809 795.323 341.245C795.061 341.681 794.93 342.333 794.927 343.203C794.927 343.791 794.986 344.282 795.102 344.676C795.222 345.067 795.39 345.361 795.606 345.558C795.823 345.752 796.077 345.849 796.369 345.849Z"
        fill="white" />
    <path
        d="M115.527 77.6743C125.781 75.2004 122.997 67.4466 120.324 63.8791C115.297 58.7785 110.27 62.3479 108.583 65.886C105.246 72.6795 105.272 80.1482 115.527 77.6743Z"
        fill="#685700" />
    <path
        d="M114.501 77.2356C123.999 74.6778 121.582 67.3296 119.185 63.9753C114.65 59.2026 109.948 62.7061 108.326 66.1158C105.12 72.6645 105.002 79.7939 114.501 77.2356Z"
        fill="#9F9A7D" />
    <path
        d="M174.839 79.5308C180.162 79.5308 184.478 75.2115 184.478 69.8835C184.478 64.5555 180.162 60.2363 174.839 60.2363C169.516 60.2363 165.2 64.5555 165.2 69.8835C165.2 75.2115 169.516 79.5308 174.839 79.5308Z"
        fill="#874717" />
    <path
        d="M172.652 66.6146V74.2686H171.035V68.1506H170.99L169.239 69.2494V67.8143L171.132 66.6146H172.652ZM177.468 74.4368C176.825 74.4343 176.273 74.2761 175.81 73.9622C175.35 73.6482 174.995 73.1935 174.746 72.5981C174.5 72.0026 174.377 71.2862 174.38 70.4491C174.38 69.6144 174.503 68.9031 174.75 68.315C174.998 67.7271 175.353 67.2798 175.814 66.9734C176.277 66.6644 176.828 66.5099 177.468 66.5099C178.107 66.5099 178.658 66.6644 179.119 66.9734C179.581 67.2823 179.938 67.7309 180.187 68.3188C180.436 68.9043 180.558 69.6144 180.556 70.4491C180.556 71.2888 180.431 72.0063 180.182 72.6018C179.936 73.1973 179.583 73.652 179.122 73.9659C178.662 74.2798 178.11 74.4368 177.468 74.4368ZM177.468 73.0951C177.906 73.0951 178.256 72.8746 178.517 72.4336C178.779 71.9926 178.908 71.3311 178.906 70.4491C178.906 69.8686 178.846 69.3852 178.726 68.999C178.609 68.6128 178.443 68.3226 178.226 68.1282C178.012 67.9339 177.759 67.8367 177.468 67.8367C177.032 67.8367 176.683 68.0547 176.422 68.4907C176.161 68.9268 176.029 69.5795 176.026 70.4491C176.026 71.0371 176.085 71.5279 176.202 71.9216C176.322 72.3128 176.49 72.6067 176.706 72.8036C176.923 72.9979 177.177 73.0951 177.468 73.0951Z"
        fill="white" />
    <path
        d="M126.042 78.2876C136.296 75.8137 133.512 68.06 130.839 64.4924C125.812 59.3919 120.785 62.9612 119.098 66.4993C115.761 73.2928 115.788 80.7612 126.042 78.2876Z"
        fill="#685700" />
    <path
        d="M125.015 77.8489C134.514 75.2911 132.096 67.9429 129.7 64.5885C125.164 59.816 120.463 63.3193 118.84 66.729C115.635 73.2777 115.517 80.4069 125.015 77.8489Z"
        fill="#9F9A7D" />
    <path
        d="M124.172 78.5552C135.046 75.9317 132.094 67.709 129.258 63.9257C123.927 58.5168 118.597 62.3019 116.808 66.054C113.269 73.2583 113.297 81.1787 124.172 78.5552Z"
        fill="#3C3B38" />
    <path
        d="M123.083 78.09C133.156 75.3774 130.592 67.5849 128.051 64.0277C123.241 58.9665 118.255 62.6817 116.535 66.2976C113.136 73.2424 113.01 80.8024 123.083 78.09Z"
        fill="#3C3B38" />
    <path
        d="M124.991 78.1286C135.245 75.6546 132.461 67.9009 129.788 64.3333C124.761 59.2328 119.734 62.8021 118.047 66.3401C114.71 73.1336 114.736 80.6025 124.991 78.1286Z"
        fill="#685700" />
    <path
        d="M123.964 77.6899C133.463 75.1321 131.045 67.7838 128.648 64.4295C124.113 59.6569 119.412 63.1603 117.789 66.5699C114.585 73.1187 114.465 80.2473 123.964 77.6899Z"
        fill="#9F9A7D" />
    <path
        d="M133.81 78.5552C144.685 75.9317 141.732 67.709 138.897 63.9257C133.566 58.5168 128.236 62.3019 126.446 66.054C122.908 73.2583 122.936 81.1787 133.81 78.5552Z"
        fill="#3C3B38" />
    <path
        d="M132.722 78.09C142.794 75.3774 140.23 67.5849 137.689 64.0277C132.88 58.9665 127.894 62.6817 126.174 66.2976C122.775 73.2424 122.649 80.8024 132.722 78.09Z"
        fill="#3C3B38" />
    <path
        d="M134.63 78.1286C144.884 75.6546 142.1 67.9009 139.426 64.3333C134.399 59.2328 129.372 62.8021 127.685 66.3401C124.349 73.1336 124.375 80.6025 134.63 78.1286Z"
        fill="#685700" />
    <path
        d="M133.603 77.6899C143.101 75.1321 140.684 67.7838 138.287 64.4295C133.752 59.6569 129.051 63.1603 127.428 66.5699C124.223 73.1187 124.104 80.2473 133.603 77.6899Z"
        fill="#9F9A7D" />
    <path
        d="M143.449 78.5552C154.323 75.9317 151.371 67.709 148.536 63.9257C143.204 58.5168 137.874 62.3019 136.085 66.054C132.547 73.2583 132.575 81.1787 143.449 78.5552Z"
        fill="#3C3B38" />
    <path
        d="M142.361 78.09C152.433 75.3774 149.869 67.5849 147.328 64.0277C142.518 58.9665 137.532 62.6817 135.812 66.2976C132.413 73.2424 132.287 80.8024 142.361 78.09Z"
        fill="#3C3B38" />
    <path
        d="M144.268 78.1286C154.522 75.6546 151.738 67.9009 149.065 64.3333C144.038 59.2328 139.011 62.8021 137.324 66.3401C133.987 73.1336 134.014 80.6025 144.268 78.1286Z"
        fill="#685700" />
    <path
        d="M143.241 77.6899C152.74 75.1321 150.322 67.7838 147.926 64.4295C143.39 59.6569 138.689 63.1603 137.066 66.5699C133.862 73.1187 133.743 80.2473 143.241 77.6899Z"
        fill="#9F9A7D" />
    <path
        d="M153.964 78.5552C164.838 75.9317 161.886 67.709 159.051 63.9257C153.72 58.5168 148.389 62.3019 146.6 66.054C143.062 73.2583 143.09 81.1787 153.964 78.5552Z"
        fill="#3C3B38" />
    <path
        d="M152.876 78.09C162.948 75.3774 160.384 67.5849 157.843 64.0277C153.033 58.9665 148.048 62.6817 146.327 66.2976C142.929 73.2424 142.802 80.8024 152.876 78.09Z"
        fill="#3C3B38" />
    <path
        d="M154.783 78.1286C165.037 75.6546 162.254 67.9009 159.58 64.3333C154.553 59.2328 149.526 62.8021 147.839 66.3401C144.502 73.1336 144.529 80.6025 154.783 78.1286Z"
        fill="#685700" />
    <path
        d="M153.757 77.6899C163.255 75.1321 160.838 67.7838 158.441 64.4295C153.905 59.6569 149.204 63.1603 147.582 66.5699C144.377 73.1187 144.258 80.2473 153.757 77.6899Z"
        fill="#9F9A7D" />
    <path
        d="M115.527 480.227C125.781 477.753 122.997 470 120.324 466.433C115.297 461.332 110.27 464.902 108.583 468.439C105.246 475.233 105.272 482.702 115.527 480.227Z"
        fill="#685700" />
    <path
        d="M114.501 479.789C123.999 477.232 121.582 469.883 119.185 466.528C114.65 461.756 109.948 465.259 108.326 468.669C105.12 475.218 105.002 482.347 114.501 479.789Z"
        fill="#9F9A7D" />
    <path
        d="M174.839 482.084C180.162 482.084 184.478 477.765 184.478 472.437C184.478 467.109 180.162 462.79 174.839 462.79C169.516 462.79 165.2 467.109 165.2 472.437C165.2 477.765 169.516 482.084 174.839 482.084Z"
        fill="#874717" />
    <path
        d="M172.652 469.168V476.822H171.035V470.704H170.99L169.239 471.803V470.368L171.132 469.168H172.652ZM177.468 476.99C176.825 476.988 176.273 476.83 175.81 476.516C175.35 476.202 174.995 475.747 174.746 475.151C174.5 474.556 174.377 473.839 174.38 473.003C174.38 472.168 174.503 471.456 174.75 470.869C174.998 470.28 175.353 469.833 175.814 469.527C176.277 469.218 176.828 469.063 177.468 469.063C178.107 469.063 178.658 469.218 179.119 469.527C179.581 469.836 179.938 470.284 180.187 470.872C180.436 471.458 180.558 472.168 180.556 473.003C180.556 473.842 180.431 474.559 180.182 475.155C179.936 475.75 179.583 476.206 179.122 476.519C178.662 476.833 178.11 476.99 177.468 476.99ZM177.468 475.649C177.906 475.649 178.256 475.428 178.517 474.987C178.779 474.546 178.908 473.885 178.906 473.003C178.906 472.422 178.846 471.939 178.726 471.552C178.609 471.166 178.443 470.876 178.226 470.682C178.012 470.487 177.759 470.39 177.468 470.39C177.032 470.39 176.683 470.608 176.422 471.044C176.161 471.48 176.029 472.133 176.026 473.003C176.026 473.59 176.085 474.081 176.202 474.475C176.322 474.866 176.49 475.16 176.706 475.357C176.923 475.551 177.177 475.649 177.468 475.649Z"
        fill="white" />
    <path
        d="M126.042 480.841C136.296 478.367 133.512 470.614 130.839 467.046C125.812 461.945 120.785 465.515 119.098 469.052C115.761 475.846 115.788 483.315 126.042 480.841Z"
        fill="#685700" />
    <path
        d="M125.015 480.402C134.514 477.845 132.096 470.496 129.7 467.142C125.164 462.37 120.463 465.872 118.84 469.282C115.635 475.831 115.517 482.96 125.015 480.402Z"
        fill="#9F9A7D" />
    <path
        d="M124.172 481.109C135.046 478.485 132.094 470.263 129.258 466.479C123.927 461.07 118.597 464.855 116.808 468.607C113.269 475.812 113.297 483.732 124.172 481.109Z"
        fill="#3C3B38" />
    <path
        d="M123.083 480.643C133.156 477.931 130.592 470.138 128.051 466.581C123.241 461.52 118.255 465.235 116.535 468.851C113.136 475.796 113.01 483.356 123.083 480.643Z"
        fill="#3C3B38" />
    <path
        d="M124.991 480.682C135.245 478.208 132.461 470.454 129.788 466.886C124.761 461.786 119.734 465.356 118.047 468.894C114.71 475.687 114.736 483.156 124.991 480.682Z"
        fill="#685700" />
    <path
        d="M123.964 480.243C133.463 477.685 131.045 470.337 128.648 466.983C124.113 462.21 119.412 465.714 117.789 469.123C114.585 475.672 114.465 482.801 123.964 480.243Z"
        fill="#9F9A7D" />
    <path
        d="M133.81 481.109C144.685 478.485 141.732 470.263 138.897 466.479C133.566 461.07 128.236 464.855 126.446 468.607C122.908 475.812 122.936 483.732 133.81 481.109Z"
        fill="#3C3B38" />
    <path
        d="M132.722 480.643C142.794 477.931 140.23 470.138 137.689 466.581C132.88 461.52 127.894 465.235 126.174 468.851C122.775 475.796 122.649 483.356 132.722 480.643Z"
        fill="#3C3B38" />
    <path
        d="M134.63 480.682C144.884 478.208 142.1 470.454 139.426 466.886C134.399 461.786 129.372 465.356 127.685 468.894C124.349 475.687 124.375 483.156 134.63 480.682Z"
        fill="#685700" />
    <path
        d="M133.603 480.243C143.101 477.685 140.684 470.337 138.287 466.983C133.752 462.21 129.051 465.714 127.428 469.123C124.223 475.672 124.104 482.801 133.603 480.243Z"
        fill="#9F9A7D" />
    <path
        d="M143.449 481.109C154.323 478.485 151.371 470.263 148.536 466.479C143.204 461.07 137.874 464.855 136.085 468.607C132.547 475.812 132.575 483.732 143.449 481.109Z"
        fill="#3C3B38" />
    <path
        d="M142.361 480.643C152.433 477.931 149.869 470.138 147.328 466.581C142.518 461.52 137.532 465.235 135.812 468.851C132.413 475.796 132.287 483.356 142.361 480.643Z"
        fill="#3C3B38" />
    <path
        d="M144.268 480.682C154.522 478.208 151.738 470.454 149.065 466.886C144.038 461.786 139.011 465.356 137.324 468.894C133.987 475.687 134.014 483.156 144.268 480.682Z"
        fill="#685700" />
    <path
        d="M143.241 480.243C152.74 477.685 150.322 470.337 147.926 466.983C143.39 462.21 138.689 465.714 137.066 469.123C133.862 475.672 133.743 482.801 143.241 480.243Z"
        fill="#9F9A7D" />
    <path
        d="M153.964 481.109C164.838 478.485 161.886 470.263 159.051 466.479C153.72 461.07 148.389 464.855 146.6 468.607C143.062 475.812 143.09 483.732 153.964 481.109Z"
        fill="#3C3B38" />
    <path
        d="M152.876 480.643C162.948 477.931 160.384 470.138 157.843 466.581C153.033 461.52 148.048 465.235 146.327 468.851C142.929 475.796 142.802 483.356 152.876 480.643Z"
        fill="#3C3B38" />
    <path
        d="M154.783 480.682C165.037 478.208 162.254 470.454 159.58 466.886C154.553 461.786 149.526 465.356 147.839 468.894C144.502 475.687 144.529 483.156 154.783 480.682Z"
        fill="#685700" />
    <path
        d="M153.757 480.243C163.255 477.685 160.838 470.337 158.441 466.983C153.905 462.21 149.204 465.714 147.582 469.123C144.377 475.672 144.258 482.801 153.757 480.243Z"
        fill="#9F9A7D" />
    <g filter="url(#filter1_d_190_2)">
        <path
            d="M903.88 43.1343H842.542C840.365 43.1343 838.599 44.9013 838.599 47.0809V68.1295C838.599 70.3091 840.365 72.0761 842.542 72.0761H903.88C906.058 72.0761 907.823 70.3091 907.823 68.1295V47.0809C907.823 44.9013 906.058 43.1343 903.88 43.1343Z"
            stroke="#DEB103" stroke-opacity="0.55" />
        <path
            d="M855.308 50.9876V63.7444H852.612V53.5478H852.538L849.619 55.379V52.9872L852.775 50.9876H855.308ZM863.334 64.0247C862.263 64.0206 861.342 63.7568 860.571 63.2336C859.803 62.7104 859.212 61.9525 858.797 60.9601C858.386 59.9677 858.183 58.7738 858.187 57.3785C858.187 55.9874 858.393 54.8018 858.803 53.8218C859.218 52.8418 859.81 52.0964 860.577 51.5857C861.349 51.0707 862.268 50.8133 863.334 50.8133C864.401 50.8133 865.317 51.0707 866.085 51.5857C866.857 52.1006 867.45 52.8481 867.864 53.8281C868.28 54.8039 868.485 55.9874 868.48 57.3785C868.48 58.7779 868.274 59.9739 867.858 60.9663C867.447 61.9588 866.859 62.7166 866.091 63.2398C865.323 63.7631 864.404 64.0247 863.334 64.0247ZM863.334 61.7885C864.064 61.7885 864.647 61.4211 865.083 60.686C865.519 59.951 865.734 58.8485 865.73 57.3785C865.73 56.411 865.631 55.6053 865.431 54.9617C865.237 54.3181 864.958 53.8343 864.598 53.5104C864.24 53.1864 863.82 53.0245 863.334 53.0245C862.608 53.0245 862.027 53.3879 861.591 54.1146C861.156 54.8413 860.936 55.9292 860.932 57.3785C860.932 58.3585 861.03 59.1766 861.224 59.8327C861.423 60.4846 861.704 60.9747 862.065 61.3027C862.426 61.6265 862.849 61.7885 863.334 61.7885ZM871.976 62.2619C871.564 62.2619 871.213 62.1165 870.916 61.8259C870.626 61.5352 870.486 61.1822 870.486 60.767C870.486 60.36 870.626 60.0112 870.916 59.7205C871.213 59.4299 871.564 59.2845 871.976 59.2845C872.379 59.2845 872.721 59.4299 873.019 59.7205C873.325 60.0112 873.474 60.36 873.474 60.767C873.474 61.041 873.404 61.2923 873.255 61.5207C873.124 61.7449 872.94 61.9255 872.721 62.0626C872.493 62.1955 872.247 62.2619 871.976 62.2619ZM871.976 56.0019C871.564 56.0019 871.213 55.8566 870.916 55.5659C870.626 55.2752 870.486 54.9222 870.486 54.507C870.486 54.1 870.626 53.7533 870.916 53.4667C871.213 53.1761 871.564 53.0308 871.976 53.0308C872.379 53.0308 872.721 53.1761 873.019 53.4667C873.325 53.7533 873.474 54.1 873.474 54.507C873.474 54.7852 873.404 55.0385 873.255 55.2669C873.124 55.4912 872.94 55.6697 872.721 55.8026C872.493 55.9355 872.247 56.0019 871.976 56.0019ZM875.621 63.7444V61.801L880.16 57.5965C880.546 57.2227 880.87 56.8864 881.133 56.5874C881.396 56.2885 881.597 55.9957 881.737 55.7092C881.869 55.4184 881.939 55.1049 881.939 54.7686C881.939 54.3949 881.851 54.073 881.685 53.8032C881.509 53.5291 881.282 53.3194 880.984 53.174C880.695 53.0245 880.362 52.9498 879.985 52.9498C879.59 52.9498 879.257 53.0287 878.968 53.1864C878.67 53.3443 878.451 53.5706 878.294 53.8654C878.136 54.1603 878.057 54.5112 878.057 54.9181H875.498C875.498 54.0834 875.682 53.3588 876.068 52.7442C876.445 52.1296 876.97 51.6542 877.654 51.3178C878.329 50.9814 879.117 50.8133 880.002 50.8133C880.914 50.8133 881.711 50.9752 882.386 51.2992C883.069 51.6188 883.595 52.0632 883.972 52.6321C884.349 53.201 884.541 53.853 884.541 54.588C884.541 55.0697 884.445 55.5451 884.252 56.0144C884.068 56.4836 883.735 57.0047 883.253 57.5779C882.771 58.1467 882.097 58.8298 881.22 59.6271L879.354 61.4522V61.5394H884.708V63.7444H875.621ZM891.656 64.0247C890.587 64.0206 889.667 63.7568 888.896 63.2336C888.125 62.7104 887.538 61.9525 887.117 60.9601C886.714 59.9677 886.504 58.7738 886.513 57.3785C886.513 55.9874 886.714 54.8018 887.126 53.8218C887.547 52.8418 888.134 52.0964 888.905 51.5857C889.676 51.0707 890.596 50.8133 891.656 50.8133C892.725 50.8133 893.645 51.0707 894.408 51.5857C895.179 52.1006 895.775 52.8481 896.187 53.8281C896.607 54.8039 896.809 55.9874 896.809 57.3785C896.809 58.7779 896.598 59.9739 896.187 60.9663C895.775 61.9588 895.179 62.7166 894.417 63.2398C893.645 63.7631 892.725 64.0247 891.656 64.0247ZM891.656 61.7885C892.393 61.7885 892.971 61.4211 893.409 60.686C893.838 59.951 894.057 58.8485 894.057 57.3785C894.057 56.411 893.952 55.6053 893.759 54.9617C893.558 54.3181 893.286 53.8343 892.918 53.5104C892.568 53.1864 892.147 53.0245 891.656 53.0245C890.929 53.0245 890.351 53.3879 889.913 54.1146C889.483 54.8413 889.264 55.9292 889.255 57.3785C889.255 58.3585 889.352 59.1766 889.545 59.8327C889.746 60.4846 890.027 60.9747 890.386 61.3027C890.754 61.6265 891.175 61.7885 891.656 61.7885Z"
            fill="white" />
    </g>
    <g filter="url(#filter2_d_190_2)">
        <path
            d="M907.385 445.688H842.542C840.365 445.688 838.599 447.455 838.599 449.634V472.437C838.599 474.617 840.365 476.384 842.542 476.384H907.385C909.563 476.384 911.328 474.617 911.328 472.437V449.634C911.328 447.455 909.563 445.688 907.385 445.688Z"
            stroke="#DEB103" stroke-opacity="0.55" />
    </g>
    <path
        d="M857.06 454.418V467.175H854.365V456.979H854.29L851.372 458.81V456.417L854.527 454.418H857.06ZM865.087 467.455C864.016 467.451 863.095 467.187 862.323 466.664C861.555 466.141 860.965 465.383 860.549 464.39C860.138 463.398 859.935 462.204 859.94 460.808C859.94 459.418 860.146 458.233 860.556 457.252C860.971 456.272 861.562 455.527 862.329 455.016C863.101 454.501 864.02 454.244 865.087 454.244C866.153 454.244 867.07 454.501 867.837 455.016C868.609 455.531 869.202 456.279 869.617 457.258C870.03 458.234 870.241 459.418 870.232 460.808C870.232 462.208 870.022 463.404 869.611 464.396C869.2 465.389 868.611 466.147 867.843 466.67C867.076 467.193 866.157 467.455 865.087 467.455ZM865.087 465.219C865.817 465.219 866.399 464.852 866.836 464.117C867.271 463.382 867.487 462.279 867.482 460.808C867.482 459.841 867.383 459.036 867.184 458.392C866.989 457.749 866.71 457.264 866.35 456.941C865.993 456.617 865.572 456.455 865.087 456.455C864.36 456.455 863.779 456.818 863.344 457.545C862.908 458.271 862.688 459.36 862.684 460.808C862.684 461.789 862.782 462.607 862.977 463.263C863.176 463.915 863.456 464.405 863.817 464.733C864.178 465.057 864.601 465.219 865.087 465.219ZM873.728 465.693C873.316 465.693 872.966 465.547 872.668 465.256C872.379 464.966 872.239 464.613 872.239 464.197C872.239 463.79 872.379 463.441 872.668 463.151C872.966 462.86 873.316 462.715 873.728 462.715C874.131 462.715 874.473 462.86 874.771 463.151C875.078 463.441 875.227 463.79 875.227 464.197C875.227 464.472 875.157 464.723 875.008 464.951C874.876 465.175 874.692 465.356 874.473 465.493C874.245 465.626 874 465.693 873.728 465.693ZM873.728 459.432C873.316 459.432 872.966 459.287 872.668 458.997C872.379 458.705 872.239 458.353 872.239 457.937C872.239 457.53 872.379 457.184 872.668 456.897C872.966 456.607 873.316 456.461 873.728 456.461C874.131 456.461 874.473 456.607 874.771 456.897C875.078 457.184 875.227 457.53 875.227 457.937C875.227 458.216 875.157 458.469 875.008 458.697C874.876 458.921 874.692 459.1 874.473 459.233C874.245 459.366 874 459.432 873.728 459.432ZM877.373 467.175V465.231L881.912 461.027C882.298 460.653 882.622 460.316 882.885 460.017C883.148 459.719 883.349 459.426 883.49 459.139C883.621 458.849 883.691 458.535 883.691 458.199C883.691 457.825 883.604 457.504 883.437 457.234C883.262 456.959 883.034 456.75 882.736 456.604C882.447 456.455 882.114 456.38 881.737 456.38C881.343 456.38 881.01 456.459 880.721 456.617C880.423 456.775 880.204 457.001 880.046 457.296C879.888 457.591 879.809 457.941 879.809 458.348H877.251C877.251 457.513 877.435 456.789 877.82 456.174C878.197 455.56 878.723 455.084 879.406 454.748C880.081 454.411 880.87 454.244 881.755 454.244C882.666 454.244 883.463 454.405 884.138 454.73C884.822 455.049 885.347 455.494 885.724 456.063C886.101 456.631 886.294 457.284 886.294 458.019C886.294 458.5 886.197 458.975 886.005 459.445C885.821 459.914 885.488 460.435 885.006 461.008C884.524 461.577 883.849 462.26 882.973 463.057L881.106 464.882V464.97H886.46V467.175H877.373ZM893.409 467.455C892.34 467.451 891.42 467.187 890.649 466.664C889.878 466.141 889.29 465.383 888.87 464.39C888.467 463.398 888.257 462.204 888.265 460.808C888.265 459.418 888.467 458.233 888.879 457.252C889.299 456.272 889.886 455.527 890.657 455.016C891.429 454.501 892.349 454.244 893.409 454.244C894.478 454.244 895.398 454.501 896.16 455.016C896.931 455.531 897.527 456.279 897.939 457.258C898.36 458.234 898.561 459.418 898.561 460.808C898.561 462.208 898.351 463.404 897.939 464.396C897.527 465.389 896.931 466.147 896.169 466.67C895.398 467.193 894.478 467.455 893.409 467.455ZM893.409 465.219C894.145 465.219 894.723 464.852 895.161 464.117C895.591 463.382 895.81 462.279 895.81 460.808C895.81 459.841 895.705 459.036 895.512 458.392C895.31 457.749 895.039 457.264 894.671 456.941C894.32 456.617 893.9 456.455 893.409 456.455C892.682 456.455 892.103 456.818 891.665 457.545C891.236 458.271 891.017 459.36 891.008 460.808C891.008 461.789 891.104 462.607 891.297 463.263C891.499 463.915 891.779 464.405 892.138 464.733C892.506 465.057 892.927 465.219 893.409 465.219Z"
        fill="white" />
    <path
        d="M442.972 402.275C451.199 402.275 457.868 395.6 457.868 387.366C457.868 379.131 451.199 372.456 442.972 372.456C434.745 372.456 428.076 379.131 428.076 387.366C428.076 395.6 434.745 402.275 442.972 402.275Z"
        fill="#FF0000" />
    <path d="M448.229 382.104L437.714 392.628" stroke="white" stroke-width="2"
        stroke-linecap="round" stroke-linejoin="round" />
    <path d="M437.714 382.104L448.229 392.628" stroke="white" stroke-width="2"
        stroke-linecap="round" stroke-linejoin="round" />
    <path
        d="M405.293 402.275C413.52 402.275 420.19 395.6 420.19 387.366C420.19 379.131 413.52 372.456 405.293 372.456C397.066 372.456 390.397 379.131 390.397 387.366C390.397 395.6 397.066 402.275 405.293 402.275Z"
        fill="#43BB38" />
    <path d="M399.159 389.12L402.664 391.751L410.551 382.104" stroke="white" stroke-width="2" />
    <defs>
        <filter id="filter0_d_190_2" x="0" y="0" width="948.672" height="527.625"
            filterUnits="userSpaceOnUse" color-interpolation-filters="sRGB">
            <feFlood flood-opacity="0" result="BackgroundImageFix" />
            <feColorMatrix in="SourceAlpha" type="matrix"
                values="0 0 0 0 0 0 0 0 0 0 0 0 0 0 0 0 0 0 127 0" result="hardAlpha" />
            <feOffset dx="-5" dy="8" />
            <feGaussianBlur stdDeviation="10" />
            <feComposite in2="hardAlpha" operator="out" />
            <feColorMatrix type="matrix" values="0 0 0 0 0 0 0 0 0 0 0 0 0 0 0 0 0 0 0.06 0" />
            <feBlend mode="normal" in2="BackgroundImageFix" result="effect1_dropShadow_190_2" />
            <feBlend mode="normal" in="SourceGraphic" in2="effect1_dropShadow_190_2" result="shape" />
        </filter>
        <filter id="filter1_d_190_2" x="834.099" y="42.6343" width="78.2239" height="37.9418"
            filterUnits="userSpaceOnUse" color-interpolation-filters="sRGB">
            <feFlood flood-opacity="0" result="BackgroundImageFix" />
            <feColorMatrix in="SourceAlpha" type="matrix"
                values="0 0 0 0 0 0 0 0 0 0 0 0 0 0 0 0 0 0 127 0" result="hardAlpha" />
            <feOffset dy="4" />
            <feGaussianBlur stdDeviation="2" />
            <feComposite in2="hardAlpha" operator="out" />
            <feColorMatrix type="matrix" values="0 0 0 0 0 0 0 0 0 0 0 0 0 0 0 0 0 0 0.25 0" />
            <feBlend mode="normal" in2="BackgroundImageFix" result="effect1_dropShadow_190_2" />
            <feBlend mode="normal" in="SourceGraphic" in2="effect1_dropShadow_190_2" result="shape" />
        </filter>
        <filter id="filter2_d_190_2" x="834.099" y="445.188" width="81.7288" height="39.6958"
            filterUnits="userSpaceOnUse" color-interpolation-filters="sRGB">
            <feFlood flood-opacity="0" result="BackgroundImageFix" />
            <feColorMatrix in="SourceAlpha" type="matrix"
                values="0 0 0 0 0 0 0 0 0 0 0 0 0 0 0 0 0 0 127 0" result="hardAlpha" />
            <feOffset dy="4" />
            <feGaussianBlur stdDeviation="2" />
            <feComposite in2="hardAlpha" operator="out" />
            <feColorMatrix type="matrix" values="0 0 0 0 0 0 0 0 0 0 0 0 0 0 0 0 0 0 0.25 0" />
            <feBlend mode="normal" in2="BackgroundImageFix" result="effect1_dropShadow_190_2" />
            <feBlend mode="normal" in="SourceGraphic" in2="effect1_dropShadow_190_2" result="shape" />
        </filter>
        <radialGradient id="paint0_radial_190_2" cx="0" cy="0" r="1" gradientUnits="userSpaceOnUse"
            gradientTransform="translate(468.229 200.998) rotate(-1.69624) scale(719.638 118.473)">
            <stop stop-color="#935F2E" />
            <stop offset="1" stop-color="#AD7540" />
        </radialGradient>
        <radialGradient id="paint1_radial_190_2" cx="0" cy="0" r="1" gradientUnits="userSpaceOnUse"
            gradientTransform="translate(468.229 314.134) rotate(-1.69624) scale(719.638 118.473)">
            <stop stop-color="#935F2E" />
            <stop offset="1" stop-color="#AD7540" />
        </radialGradient>
    </defs>
</svg>
    